<mxfile host="app.diagrams.net" modified="2022-12-07T07:50:14.106Z" agent="5.0 (X11; Linux x86_64) AppleWebKit/537.36 (KHTML, like Gecko) Chrome/107.0.0.0 Safari/537.36" etag="xVUy2ZvanzQ3gi8guY8g" version="20.6.0" type="github" pages="6">
  <diagram id="Z5fRvb1dF8dOq9WJslDX" name="总览">
    <mxGraphModel dx="1814" dy="861" grid="1" gridSize="10" guides="1" tooltips="1" connect="1" arrows="1" fold="1" page="1" pageScale="1" pageWidth="827" pageHeight="1169" math="0" shadow="0">
      <root>
        <mxCell id="0" />
        <mxCell id="1" parent="0" />
        <mxCell id="DHeRsUU5nqe6Nl5Jyd5S-1" value="" style="rounded=0;whiteSpace=wrap;html=1;" parent="1" vertex="1">
          <mxGeometry x="80" y="90" width="1400" height="80" as="geometry" />
        </mxCell>
        <mxCell id="DHeRsUU5nqe6Nl5Jyd5S-4" value="页面⬇️ &amp;nbsp; 快捷1 &amp;nbsp;快捷2" style="rounded=1;whiteSpace=wrap;html=1;" parent="1" vertex="1">
          <mxGeometry x="90" y="100" width="140" height="60" as="geometry" />
        </mxCell>
        <mxCell id="DHeRsUU5nqe6Nl5Jyd5S-5" value="撤销 恢复" style="rounded=1;whiteSpace=wrap;html=1;" parent="1" vertex="1">
          <mxGeometry x="240" y="100" width="90" height="60" as="geometry" />
        </mxCell>
        <mxCell id="DHeRsUU5nqe6Nl5Jyd5S-7" value="xxxxx.jpg(1/100)⬇️" style="rounded=1;whiteSpace=wrap;html=1;" parent="1" vertex="1">
          <mxGeometry x="550" y="100" width="550" height="60" as="geometry" />
        </mxCell>
        <mxCell id="DHeRsUU5nqe6Nl5Jyd5S-8" value="全屏｜隐藏悬浮页" style="rounded=1;whiteSpace=wrap;html=1;" parent="1" vertex="1">
          <mxGeometry x="1290" y="100" width="120" height="60" as="geometry" />
        </mxCell>
        <mxCell id="DHeRsUU5nqe6Nl5Jyd5S-9" value="返回" style="rounded=0;whiteSpace=wrap;html=1;" parent="1" vertex="1">
          <mxGeometry x="1420" y="90" width="60" height="80" as="geometry" />
        </mxCell>
        <mxCell id="DHeRsUU5nqe6Nl5Jyd5S-12" value="保存" style="rounded=1;whiteSpace=wrap;html=1;fillColor=#f0a30a;fontColor=#000000;strokeColor=#BD7000;" parent="1" vertex="1">
          <mxGeometry x="340" y="100" width="130" height="60" as="geometry" />
        </mxCell>
        <mxCell id="DHeRsUU5nqe6Nl5Jyd5S-25" value="x x x.jpg（当前文件）" style="rounded=1;whiteSpace=wrap;html=1;" parent="1" vertex="1">
          <mxGeometry x="1780" y="530" width="550" height="60" as="geometry" />
        </mxCell>
        <mxCell id="DHeRsUU5nqe6Nl5Jyd5S-26" value="" style="rounded=0;whiteSpace=wrap;html=1;labelBackgroundColor=default;labelBorderColor=default;strokeColor=default;fontSize=18;" parent="1" vertex="1">
          <mxGeometry x="1780" y="590" width="550" height="400" as="geometry" />
        </mxCell>
        <mxCell id="DHeRsUU5nqe6Nl5Jyd5S-27" value="xxx.jpg" style="rounded=0;whiteSpace=wrap;html=1;labelBackgroundColor=default;labelBorderColor=none;strokeColor=default;fontSize=18;" parent="1" vertex="1">
          <mxGeometry x="1780" y="590" width="550" height="60" as="geometry" />
        </mxCell>
        <mxCell id="DHeRsUU5nqe6Nl5Jyd5S-28" value="xxx.jpg" style="rounded=0;whiteSpace=wrap;html=1;labelBackgroundColor=default;labelBorderColor=default;strokeColor=default;fontSize=18;" parent="1" vertex="1">
          <mxGeometry x="1780" y="650" width="550" height="60" as="geometry" />
        </mxCell>
        <mxCell id="DHeRsUU5nqe6Nl5Jyd5S-29" value="&lt;span style=&quot;caret-color: rgb(0, 0, 0); color: rgb(0, 0, 0); font-family: Helvetica; font-size: 18px; font-style: normal; font-variant-caps: normal; font-weight: 400; letter-spacing: normal; text-align: center; text-indent: 0px; text-transform: none; word-spacing: 0px; -webkit-text-stroke-width: 0px; background-color: rgb(255, 255, 255); text-decoration: none; float: none; display: inline !important;&quot;&gt;xxx.jpg&lt;/span&gt;" style="rounded=0;whiteSpace=wrap;html=1;labelBackgroundColor=default;labelBorderColor=default;strokeColor=default;fontSize=18;" parent="1" vertex="1">
          <mxGeometry x="1780" y="710" width="550" height="60" as="geometry" />
        </mxCell>
        <mxCell id="DHeRsUU5nqe6Nl5Jyd5S-30" value="xxx.jpg" style="rounded=0;whiteSpace=wrap;html=1;labelBackgroundColor=default;labelBorderColor=default;strokeColor=default;fontSize=18;" parent="1" vertex="1">
          <mxGeometry x="1780" y="770" width="550" height="60" as="geometry" />
        </mxCell>
        <mxCell id="DHeRsUU5nqe6Nl5Jyd5S-31" value="1/100(可修改跳转)" style="rounded=0;whiteSpace=wrap;html=1;labelBackgroundColor=default;labelBorderColor=none;strokeColor=default;fontSize=18;" parent="1" vertex="1">
          <mxGeometry x="1780" y="930" width="550" height="60" as="geometry" />
        </mxCell>
        <mxCell id="DHeRsUU5nqe6Nl5Jyd5S-32" value="上一张" style="rounded=0;whiteSpace=wrap;html=1;labelBackgroundColor=default;labelBorderColor=none;strokeColor=default;fontSize=18;" parent="1" vertex="1">
          <mxGeometry x="1780" y="930" width="120" height="60" as="geometry" />
        </mxCell>
        <mxCell id="DHeRsUU5nqe6Nl5Jyd5S-33" value="下一张" style="rounded=0;whiteSpace=wrap;html=1;labelBackgroundColor=default;labelBorderColor=none;strokeColor=default;fontSize=18;" parent="1" vertex="1">
          <mxGeometry x="2210" y="930" width="120" height="60" as="geometry" />
        </mxCell>
        <mxCell id="DHeRsUU5nqe6Nl5Jyd5S-34" value="" style="rounded=0;whiteSpace=wrap;html=1;labelBackgroundColor=default;labelBorderColor=none;strokeColor=default;fontSize=18;" parent="1" vertex="1">
          <mxGeometry x="2320" y="600" width="10" height="280" as="geometry" />
        </mxCell>
        <mxCell id="DHeRsUU5nqe6Nl5Jyd5S-35" value="文件列表（最小化，关闭）" style="rounded=1;whiteSpace=wrap;html=1;labelBackgroundColor=default;labelBorderColor=none;strokeColor=default;fontSize=18;" parent="1" vertex="1">
          <mxGeometry x="1780" y="470" width="550" height="70" as="geometry" />
        </mxCell>
        <mxCell id="DHeRsUU5nqe6Nl5Jyd5S-38" value="[ ] &amp;nbsp;- 100% +" style="rounded=1;whiteSpace=wrap;html=1;labelBackgroundColor=default;labelBorderColor=none;strokeColor=default;fontSize=18;" parent="1" vertex="1">
          <mxGeometry x="1330" y="820" width="140" height="60" as="geometry" />
        </mxCell>
        <mxCell id="DHeRsUU5nqe6Nl5Jyd5S-39" value="" style="rounded=1;whiteSpace=wrap;html=1;labelBackgroundColor=default;labelBorderColor=none;strokeColor=default;fontSize=18;" parent="1" vertex="1">
          <mxGeometry x="80" y="240" width="180" height="500" as="geometry" />
        </mxCell>
        <mxCell id="DHeRsUU5nqe6Nl5Jyd5S-51" value="" style="rounded=1;whiteSpace=wrap;html=1;labelBackgroundColor=default;labelBorderColor=none;strokeColor=default;fontSize=18;" parent="1" vertex="1">
          <mxGeometry x="1300" y="225" width="180" height="555" as="geometry" />
        </mxCell>
      </root>
    </mxGraphModel>
  </diagram>
  <diagram id="BpjX41CD7FdUTdFEQTC4" name="对象列表">
    <mxGraphModel dx="1814" dy="861" grid="1" gridSize="10" guides="1" tooltips="1" connect="1" arrows="1" fold="1" page="1" pageScale="1" pageWidth="827" pageHeight="1169" math="0" shadow="0">
      <root>
        <mxCell id="0" />
        <mxCell id="1" parent="0" />
        <mxCell id="Xe9zop6OR9kDoCmG2jPb-1" value="" style="rounded=1;whiteSpace=wrap;html=1;arcSize=3;" vertex="1" parent="1">
          <mxGeometry x="180" y="60" width="250" height="480" as="geometry" />
        </mxCell>
        <mxCell id="Xe9zop6OR9kDoCmG2jPb-2" value="" style="shape=image;verticalLabelPosition=bottom;labelBackgroundColor=default;verticalAlign=top;aspect=fixed;imageAspect=0;image=data:image/png,iVBORw0KGgoAAAANSUhEUgAAAGYAAAAmCAYAAAA2h+4OAAAMQGlDQ1BJQ0MgUHJvZmlsZQAASImVVwdYU8kWnluSkEBoAaQTehMEpASQEkILIL0INkISIJQQA0HFjiwquHaxgA1dFVHsgNgRxcKi2LAvqKgo62LBrrxJAV33le/N982d//5z5j9nzswtA4DaKY5IlIOqA5ArLBDHhgTQxyWn0ElPgDKgAB1gAJw43HwRMzo6AsAy1P69vLsJEGl7zUGq9c/+/1o0ePx8LgBINMRpvHxuLsSHAMCruCJxAQBEKW8+tUAkxbACLTEMEOKFUpwhx1VSnCbH+2Q28bEsiFsAUFLhcMQZAKhegTy9kJsBNVT7IXYS8gRCANToEPvm5ubxIE6F2AbaiCCW6jPSftDJ+Jtm2rAmh5MxjOVzkRWlQEG+KIcz/f9Mx/8uuTmSIR9WsKpkikNjpXOGebuVnRcuxSoQ9wnTIqMg1oT4g4Ans4cYpWRKQhPk9qghN58FcwbXGaBOPE5gOMSGEAcLcyIjFHxauiCYDTHcIeg0QQE7HmJdiBfy84PiFDabxXmxCl9ofbqYxVTw5zlimV+prweS7ASmQv91Jp+t0MdUizLjkyCmQGxRKEiMhFgVYsf87Lhwhc2YokxW5JCNWBIrjd8C4li+MCRAro8VpouDYxX2Zbn5Q/PFNmcK2JEKfKAgMz5Unh+shcuRxQ/ngl3hC5kJQzr8/HERQ3Ph8QOD5HPHnvGFCXEKnQ+igoBY+VicIsqJVtjjZvycEClvBrFrfmGcYiyeWAA3pFwfTxcVRMfL48SLsjhh0fJ48GUgArBAIKADCaxpIA9kAUF7X0MfvJP3BAMOEIMMwAcOCmZoRJKsRwivcaAI/AkRH+QPjwuQ9fJBIeS/DrPyqwNIl/UWykZkgycQ54JwkAPvJbJRwmFvieAxZAT/8M6BlQvjzYFV2v/v+SH2O8OETISCkQx5pKsNWRKDiIHEUGIw0RbXx31xbzwCXv1hdcEZuOfQPL7bE54QOggPCTcIXYTbkwXF4p+iHAu6oH6wIhdpP+YCt4KabngA7gPVoTKug+sDB9wV+mHiftCzG2RZirilWaH/pP23GfywGgo7shMZJY8g+5Ntfh6paqfqNqwizfWP+ZHHmjacb9Zwz8/+WT9knwfb8J8tsYXYQawVO41dwI5hDYCOncQasTbsuBQP767Hst015C1WFk821BH8w9/Qykozme9U69Tr9EXeV8CfJn1HA1aeaLpYkJFZQGfCLwKfzhZyHUfSXZxcXACQfl/kr683MbLvBqLT9p2b/wcAPicHBwePfufCTgKw3wM+/ke+czYM+OlQBuD8Ea5EXCjncOmFAN8SavBJ0wPGwBzYwPm4AHfgDfxBEAgDUSAeJINJMPpMuM/FYCqYCeaBUlAOloHVYD3YBLaCnWAPOAAawDFwGpwDl8AVcAPchbunB7wA/eAd+IwgCAmhIjREDzFBLBF7xAVhIL5IEBKBxCLJSCqSgQgRCTITmY+UIyuQ9cgWpAbZjxxBTiMXkA7kNtKN9CKvkU8ohqqgWqgRaoWOQhkoEw1H49GJaAY6BS1CS9Al6Fq0Gt2N1qOn0UvoDbQLfYEOYABTxnQwU8wBY2AsLApLwdIxMTYbK8MqsGqsDmuC63wN68L6sI84EafhdNwB7uBQPAHn4lPw2fhifD2+E6/HW/BreDfej38jUAmGBHuCF4FNGEfIIEwllBIqCNsJhwln4bPUQ3hHJBJ1iNZED/gsJhOziDOIi4kbiHuJp4gdxEfEARKJpEeyJ/mQokgcUgGplLSOtJt0knSV1EP6oKSsZKLkohSslKIkVCpWqlDapXRC6arSU6XPZHWyJdmLHEXmkaeTl5K3kZvIl8k95M8UDYo1xYcST8mizKOspdRRzlLuUd4oKyubKXsqxygLlOcqr1Xep3xeuVv5o4qmip0KS2WCikRlicoOlVMqt1XeUKlUK6o/NYVaQF1CraGeoT6gflClqTqqslV5qnNUK1XrVa+qvlQjq1mqMdUmqRWpVagdVLus1qdOVrdSZ6lz1GerV6ofUe9UH9CgaThrRGnkaizW2KVxQeOZJknTSjNIk6dZorlV84zmIxpGM6exaFzafNo22llajxZRy1qLrZWlVa61R6tdq19bU9tVO1F7mnal9nHtLh1Mx0qHrZOjs1TngM5NnU8jjEYwR/BHLBpRN+LqiPe6Brr+unzdMt29ujd0P+nR9YL0svWW6zXo3dfH9e30Y/Sn6m/UP6vfZ6Bl4G3ANSgzOGBwxxA1tDOMNZxhuNWwzXDAyNgoxEhktM7ojFGfsY6xv3GW8SrjE8a9JjQTXxOBySqTkybP6dp0Jj2HvpbeQu83NTQNNZWYbjFtN/1sZm2WYFZsttfsvjnFnGGebr7KvNm838LEYqzFTItaizuWZEuGZablGstWy/dW1lZJVgusGqyeWetas62LrGut79lQbfxspthU21y3JdoybLNtN9hesUPt3Owy7SrtLtuj9u72AvsN9h0jCSM9RwpHVo/sdFBxYDoUOtQ6dDvqOEY4Fjs2OL4cZTEqZdTyUa2jvjm5OeU4bXO666zpHOZc7Nzk/NrFzoXrUulyfTR1dPDoOaMbR79ytXflu250veVGcxvrtsCt2e2ru4e72L3OvdfDwiPVo8qjk6HFiGYsZpz3JHgGeM7xPOb50cvdq8DrgNdf3g7e2d67vJ+NsR7DH7NtzCMfMx+OzxafLl+6b6rvZt8uP1M/jl+130N/c3+e/3b/p0xbZhZzN/NlgFOAOOBwwHuWF2sW61QgFhgSWBbYHqQZlBC0PuhBsFlwRnBtcH+IW8iMkFOhhNDw0OWhnWwjNpddw+4P8wibFdYSrhIeF74+/GGEXYQ4omksOjZs7Mqx9yItI4WRDVEgih21Mup+tHX0lOijMcSY6JjKmCexzrEzY1vjaHGT43bFvYsPiF8afzfBJkGS0JyoljghsSbxfVJg0oqkrnGjxs0adylZP1mQ3JhCSklM2Z4yMD5o/OrxPRPcJpROuDnReuK0iRcm6U/KmXR8stpkzuSDqYTUpNRdqV84UZxqzkAaO60qrZ/L4q7hvuD581bxevk+/BX8p+k+6SvSn2X4ZKzM6M30y6zI7BOwBOsFr7JCszZlvc+Oyt6RPZiTlLM3Vyk3NfeIUFOYLWzJM86bltchsheVirqmeE1ZPaVfHC7eno/kT8xvLNCCP/JtEhvJL5LuQt/CysIPUxOnHpymMU04rW263fRF058WBRf9NgOfwZ3RPNN05ryZ3bOYs7bMRmanzW6eYz6nZE7P3JC5O+dR5mXP+73YqXhF8dv5SfObSoxK5pY8+iXkl9pS1VJxaecC7wWbFuILBQvbF41etG7RtzJe2cVyp/KK8i+LuYsv/ur869pfB5ekL2lf6r504zLiMuGym8v9lu9cobGiaMWjlWNX1q+irypb9Xb15NUXKlwrNq2hrJGs6VobsbZxncW6Zeu+rM9cf6MyoHJvlWHVoqr3G3gbrm7031i3yWhT+aZPmwWbb20J2VJfbVVdsZW4tXDrk22J21p/Y/xWs11/e/n2rzuEO7p2xu5sqfGoqdlluGtpLVorqe3dPWH3lT2BexrrHOq27NXZW74P7JPse74/df/NA+EHmg8yDtYdsjxUdZh2uKweqZ9e39+Q2dDVmNzYcSTsSHOTd9Pho45HdxwzPVZ5XPv40hOUEyUnBk8WnRw4JTrVdzrj9KPmyc13z4w7c70lpqX9bPjZ8+eCz51pZbaePO9z/tgFrwtHLjIuNlxyv1Tf5tZ2+He33w+3u7fXX/a43HjF80pTx5iOE1f9rp6+Fnjt3HX29Us3Im903Ey4eatzQmfXLd6tZ7dzbr+6U3jn89259wj3yu6r3694YPig+g/bP/Z2uXcd7w7sbnsY9/DuI+6jF4/zH3/pKXlCfVLx1ORpzTOXZ8d6g3uvPB//vOeF6MXnvtI/Nf6semnz8tBf/n+19Y/r73klfjX4evEbvTc73rq+bR6IHnjwLvfd5/dlH/Q+7PzI+Nj6KenT089Tv5C+rP1q+7XpW/i3e4O5g4Mijpgj+xXAYEXT0wF4vQMAajIANHg+o4yXn/9kBZGfWWUI/CcsPyPKijsAdfD/PaYP/t10ArBvGzx+QX21CQBEUwGI9wTo6NHDdeisJjtXSgsRngM2s7+m5aaBf1PkZ84f4v65BVJVV/Bz+y+Manx37QeLzgAAAGxlWElmTU0AKgAAAAgABAEaAAUAAAABAAAAPgEbAAUAAAABAAAARgEoAAMAAAABAAIAAIdpAAQAAAABAAAATgAAAAAAAACQAAAAAQAAAJAAAAABAAKgAgAEAAAAAQAAAGagAwAEAAAAAQAAACYAAAAAs56sqQAAAAlwSFlzAAAWJQAAFiUBSVIk8AAAAi5JREFUaAXtmEFygzAMRUmnyxyAHexy/4PkANnBjgOwb/OZ+TMeNwbJwbbaSjOpySCZLz1bLrl8Pa1zM1eBD3OKXNBWAQdjdCE4GAdjtAJGZfmOcTBGK2BUlu8YB2O0Ahmy1nVVR2ljfMcoSzxNU3e/37tlWcSR8EUMYqXmYKSVevqhsPM8bxGPx0MEB1DgC0OsFE5TMBCtWXlbdo3+oBURCiUcwQmhMAZzSNpaMzAUfZQcE2o9Xq/X7na7/ZCR0s/84gDMgbmOrAmYWHQquSPxte/3fS+CE+dHnYCCOST2KXE60yclGnBgUuFnatLMRX3Uy9jwe3jN+xooiLnU/Nk/BYXiMWoTCGNrXktyoZ6cnKq1MmkiWG3wtW6pthbrzoGCOaqASUGBaHxi+ytwcqGgHsXPmD0o7NcQEvdlfg994PdfrOiOkUJJtQXrOyeVHxfPO/qLgcFLFFc9hWJMbe89OJIXsvAZNa6PoFBDLpxiYPASNQwD9W1jCgqdXsHBHJIXMs5RY0xBQX74xJYDp+gZM47jphE/QxxBYTI8U5AMoHAO3m897kGhdmiMuwW/hz57uVR5j0Er0q76nJi9RM+4J4WCZ2l8X2kr1srCh2mhIDYnJnzm2de1z8wqYM4uUov5sFBqnpkORkEZ5x3haM5M/kOgOTOrnDGK3H+Fa875p41xMEaXgrcyB2O0AkZl+Y5xMEYrYFSW7xgHY7QCRmX5jnEwRitgVJbvGKNgvgEkmD81Ypqs5gAAAABJRU5ErkJggg==;" vertex="1" parent="1">
          <mxGeometry x="350" y="62" width="75.16" height="28" as="geometry" />
        </mxCell>
        <mxCell id="Xe9zop6OR9kDoCmG2jPb-3" value="对象列表" style="text;html=1;strokeColor=none;fillColor=none;align=center;verticalAlign=middle;whiteSpace=wrap;rounded=0;" vertex="1" parent="1">
          <mxGeometry x="275" y="60" width="60" height="30" as="geometry" />
        </mxCell>
        <mxCell id="Xe9zop6OR9kDoCmG2jPb-4" value="对象" style="rounded=0;whiteSpace=wrap;html=1;" vertex="1" parent="1">
          <mxGeometry x="180" y="90" width="90" height="30" as="geometry" />
        </mxCell>
        <mxCell id="Xe9zop6OR9kDoCmG2jPb-5" value="" style="rounded=0;whiteSpace=wrap;html=1;" vertex="1" parent="1">
          <mxGeometry x="270" y="90" width="80" height="30" as="geometry" />
        </mxCell>
        <mxCell id="Xe9zop6OR9kDoCmG2jPb-6" value="" style="rounded=0;whiteSpace=wrap;html=1;" vertex="1" parent="1">
          <mxGeometry x="350" y="90" width="80" height="30" as="geometry" />
        </mxCell>
        <mxCell id="Xe9zop6OR9kDoCmG2jPb-7" value="" style="rounded=0;whiteSpace=wrap;html=1;" vertex="1" parent="1">
          <mxGeometry x="180" y="120" width="250" height="90" as="geometry" />
        </mxCell>
        <mxCell id="Xe9zop6OR9kDoCmG2jPb-8" value="1 &amp;nbsp;汽车" style="text;html=1;strokeColor=none;fillColor=none;align=center;verticalAlign=middle;whiteSpace=wrap;rounded=0;" vertex="1" parent="1">
          <mxGeometry x="180" y="120" width="60" height="30" as="geometry" />
        </mxCell>
        <mxCell id="Xe9zop6OR9kDoCmG2jPb-9" value="" style="rounded=1;whiteSpace=wrap;html=1;arcSize=3;" vertex="1" parent="1">
          <mxGeometry x="450" y="60" width="250" height="480" as="geometry" />
        </mxCell>
        <mxCell id="Xe9zop6OR9kDoCmG2jPb-10" value="" style="shape=image;verticalLabelPosition=bottom;labelBackgroundColor=default;verticalAlign=top;aspect=fixed;imageAspect=0;image=data:image/png,iVBORw0KGgoAAAANSUhEUgAAAGYAAAAmCAYAAAA2h+4OAAAMQGlDQ1BJQ0MgUHJvZmlsZQAASImVVwdYU8kWnluSkEBoAaQTehMEpASQEkILIL0INkISIJQQA0HFjiwquHaxgA1dFVHsgNgRxcKi2LAvqKgo62LBrrxJAV33le/N982d//5z5j9nzswtA4DaKY5IlIOqA5ArLBDHhgTQxyWn0ElPgDKgAB1gAJw43HwRMzo6AsAy1P69vLsJEGl7zUGq9c/+/1o0ePx8LgBINMRpvHxuLsSHAMCruCJxAQBEKW8+tUAkxbACLTEMEOKFUpwhx1VSnCbH+2Q28bEsiFsAUFLhcMQZAKhegTy9kJsBNVT7IXYS8gRCANToEPvm5ubxIE6F2AbaiCCW6jPSftDJ+Jtm2rAmh5MxjOVzkRWlQEG+KIcz/f9Mx/8uuTmSIR9WsKpkikNjpXOGebuVnRcuxSoQ9wnTIqMg1oT4g4Ans4cYpWRKQhPk9qghN58FcwbXGaBOPE5gOMSGEAcLcyIjFHxauiCYDTHcIeg0QQE7HmJdiBfy84PiFDabxXmxCl9ofbqYxVTw5zlimV+prweS7ASmQv91Jp+t0MdUizLjkyCmQGxRKEiMhFgVYsf87Lhwhc2YokxW5JCNWBIrjd8C4li+MCRAro8VpouDYxX2Zbn5Q/PFNmcK2JEKfKAgMz5Unh+shcuRxQ/ngl3hC5kJQzr8/HERQ3Ph8QOD5HPHnvGFCXEKnQ+igoBY+VicIsqJVtjjZvycEClvBrFrfmGcYiyeWAA3pFwfTxcVRMfL48SLsjhh0fJ48GUgArBAIKADCaxpIA9kAUF7X0MfvJP3BAMOEIMMwAcOCmZoRJKsRwivcaAI/AkRH+QPjwuQ9fJBIeS/DrPyqwNIl/UWykZkgycQ54JwkAPvJbJRwmFvieAxZAT/8M6BlQvjzYFV2v/v+SH2O8OETISCkQx5pKsNWRKDiIHEUGIw0RbXx31xbzwCXv1hdcEZuOfQPL7bE54QOggPCTcIXYTbkwXF4p+iHAu6oH6wIhdpP+YCt4KabngA7gPVoTKug+sDB9wV+mHiftCzG2RZirilWaH/pP23GfywGgo7shMZJY8g+5Ntfh6paqfqNqwizfWP+ZHHmjacb9Zwz8/+WT9knwfb8J8tsYXYQawVO41dwI5hDYCOncQasTbsuBQP767Hst015C1WFk821BH8w9/Qykozme9U69Tr9EXeV8CfJn1HA1aeaLpYkJFZQGfCLwKfzhZyHUfSXZxcXACQfl/kr683MbLvBqLT9p2b/wcAPicHBwePfufCTgKw3wM+/ke+czYM+OlQBuD8Ea5EXCjncOmFAN8SavBJ0wPGwBzYwPm4AHfgDfxBEAgDUSAeJINJMPpMuM/FYCqYCeaBUlAOloHVYD3YBLaCnWAPOAAawDFwGpwDl8AVcAPchbunB7wA/eAd+IwgCAmhIjREDzFBLBF7xAVhIL5IEBKBxCLJSCqSgQgRCTITmY+UIyuQ9cgWpAbZjxxBTiMXkA7kNtKN9CKvkU8ohqqgWqgRaoWOQhkoEw1H49GJaAY6BS1CS9Al6Fq0Gt2N1qOn0UvoDbQLfYEOYABTxnQwU8wBY2AsLApLwdIxMTYbK8MqsGqsDmuC63wN68L6sI84EafhdNwB7uBQPAHn4lPw2fhifD2+E6/HW/BreDfej38jUAmGBHuCF4FNGEfIIEwllBIqCNsJhwln4bPUQ3hHJBJ1iNZED/gsJhOziDOIi4kbiHuJp4gdxEfEARKJpEeyJ/mQokgcUgGplLSOtJt0knSV1EP6oKSsZKLkohSslKIkVCpWqlDapXRC6arSU6XPZHWyJdmLHEXmkaeTl5K3kZvIl8k95M8UDYo1xYcST8mizKOspdRRzlLuUd4oKyubKXsqxygLlOcqr1Xep3xeuVv5o4qmip0KS2WCikRlicoOlVMqt1XeUKlUK6o/NYVaQF1CraGeoT6gflClqTqqslV5qnNUK1XrVa+qvlQjq1mqMdUmqRWpVagdVLus1qdOVrdSZ6lz1GerV6ofUe9UH9CgaThrRGnkaizW2KVxQeOZJknTSjNIk6dZorlV84zmIxpGM6exaFzafNo22llajxZRy1qLrZWlVa61R6tdq19bU9tVO1F7mnal9nHtLh1Mx0qHrZOjs1TngM5NnU8jjEYwR/BHLBpRN+LqiPe6Brr+unzdMt29ujd0P+nR9YL0svWW6zXo3dfH9e30Y/Sn6m/UP6vfZ6Bl4G3ANSgzOGBwxxA1tDOMNZxhuNWwzXDAyNgoxEhktM7ojFGfsY6xv3GW8SrjE8a9JjQTXxOBySqTkybP6dp0Jj2HvpbeQu83NTQNNZWYbjFtN/1sZm2WYFZsttfsvjnFnGGebr7KvNm838LEYqzFTItaizuWZEuGZablGstWy/dW1lZJVgusGqyeWetas62LrGut79lQbfxspthU21y3JdoybLNtN9hesUPt3Owy7SrtLtuj9u72AvsN9h0jCSM9RwpHVo/sdFBxYDoUOtQ6dDvqOEY4Fjs2OL4cZTEqZdTyUa2jvjm5OeU4bXO666zpHOZc7Nzk/NrFzoXrUulyfTR1dPDoOaMbR79ytXflu250veVGcxvrtsCt2e2ru4e72L3OvdfDwiPVo8qjk6HFiGYsZpz3JHgGeM7xPOb50cvdq8DrgNdf3g7e2d67vJ+NsR7DH7NtzCMfMx+OzxafLl+6b6rvZt8uP1M/jl+130N/c3+e/3b/p0xbZhZzN/NlgFOAOOBwwHuWF2sW61QgFhgSWBbYHqQZlBC0PuhBsFlwRnBtcH+IW8iMkFOhhNDw0OWhnWwjNpddw+4P8wibFdYSrhIeF74+/GGEXYQ4omksOjZs7Mqx9yItI4WRDVEgih21Mup+tHX0lOijMcSY6JjKmCexzrEzY1vjaHGT43bFvYsPiF8afzfBJkGS0JyoljghsSbxfVJg0oqkrnGjxs0adylZP1mQ3JhCSklM2Z4yMD5o/OrxPRPcJpROuDnReuK0iRcm6U/KmXR8stpkzuSDqYTUpNRdqV84UZxqzkAaO60qrZ/L4q7hvuD581bxevk+/BX8p+k+6SvSn2X4ZKzM6M30y6zI7BOwBOsFr7JCszZlvc+Oyt6RPZiTlLM3Vyk3NfeIUFOYLWzJM86bltchsheVirqmeE1ZPaVfHC7eno/kT8xvLNCCP/JtEhvJL5LuQt/CysIPUxOnHpymMU04rW263fRF058WBRf9NgOfwZ3RPNN05ryZ3bOYs7bMRmanzW6eYz6nZE7P3JC5O+dR5mXP+73YqXhF8dv5SfObSoxK5pY8+iXkl9pS1VJxaecC7wWbFuILBQvbF41etG7RtzJe2cVyp/KK8i+LuYsv/ur869pfB5ekL2lf6r504zLiMuGym8v9lu9cobGiaMWjlWNX1q+irypb9Xb15NUXKlwrNq2hrJGs6VobsbZxncW6Zeu+rM9cf6MyoHJvlWHVoqr3G3gbrm7031i3yWhT+aZPmwWbb20J2VJfbVVdsZW4tXDrk22J21p/Y/xWs11/e/n2rzuEO7p2xu5sqfGoqdlluGtpLVorqe3dPWH3lT2BexrrHOq27NXZW74P7JPse74/df/NA+EHmg8yDtYdsjxUdZh2uKweqZ9e39+Q2dDVmNzYcSTsSHOTd9Pho45HdxwzPVZ5XPv40hOUEyUnBk8WnRw4JTrVdzrj9KPmyc13z4w7c70lpqX9bPjZ8+eCz51pZbaePO9z/tgFrwtHLjIuNlxyv1Tf5tZ2+He33w+3u7fXX/a43HjF80pTx5iOE1f9rp6+Fnjt3HX29Us3Im903Ey4eatzQmfXLd6tZ7dzbr+6U3jn89259wj3yu6r3694YPig+g/bP/Z2uXcd7w7sbnsY9/DuI+6jF4/zH3/pKXlCfVLx1ORpzTOXZ8d6g3uvPB//vOeF6MXnvtI/Nf6semnz8tBf/n+19Y/r73klfjX4evEbvTc73rq+bR6IHnjwLvfd5/dlH/Q+7PzI+Nj6KenT089Tv5C+rP1q+7XpW/i3e4O5g4Mijpgj+xXAYEXT0wF4vQMAajIANHg+o4yXn/9kBZGfWWUI/CcsPyPKijsAdfD/PaYP/t10ArBvGzx+QX21CQBEUwGI9wTo6NHDdeisJjtXSgsRngM2s7+m5aaBf1PkZ84f4v65BVJVV/Bz+y+Manx37QeLzgAAAGxlWElmTU0AKgAAAAgABAEaAAUAAAABAAAAPgEbAAUAAAABAAAARgEoAAMAAAABAAIAAIdpAAQAAAABAAAATgAAAAAAAACQAAAAAQAAAJAAAAABAAKgAgAEAAAAAQAAAGagAwAEAAAAAQAAACYAAAAAs56sqQAAAAlwSFlzAAAWJQAAFiUBSVIk8AAAAi5JREFUaAXtmEFygzAMRUmnyxyAHexy/4PkANnBjgOwb/OZ+TMeNwbJwbbaSjOpySCZLz1bLrl8Pa1zM1eBD3OKXNBWAQdjdCE4GAdjtAJGZfmOcTBGK2BUlu8YB2O0Ahmy1nVVR2ljfMcoSzxNU3e/37tlWcSR8EUMYqXmYKSVevqhsPM8bxGPx0MEB1DgC0OsFE5TMBCtWXlbdo3+oBURCiUcwQmhMAZzSNpaMzAUfZQcE2o9Xq/X7na7/ZCR0s/84gDMgbmOrAmYWHQquSPxte/3fS+CE+dHnYCCOST2KXE60yclGnBgUuFnatLMRX3Uy9jwe3jN+xooiLnU/Nk/BYXiMWoTCGNrXktyoZ6cnKq1MmkiWG3wtW6pthbrzoGCOaqASUGBaHxi+ytwcqGgHsXPmD0o7NcQEvdlfg994PdfrOiOkUJJtQXrOyeVHxfPO/qLgcFLFFc9hWJMbe89OJIXsvAZNa6PoFBDLpxiYPASNQwD9W1jCgqdXsHBHJIXMs5RY0xBQX74xJYDp+gZM47jphE/QxxBYTI8U5AMoHAO3m897kGhdmiMuwW/hz57uVR5j0Er0q76nJi9RM+4J4WCZ2l8X2kr1srCh2mhIDYnJnzm2de1z8wqYM4uUov5sFBqnpkORkEZ5x3haM5M/kOgOTOrnDGK3H+Fa875p41xMEaXgrcyB2O0AkZl+Y5xMEYrYFSW7xgHY7QCRmX5jnEwRitgVJbvGKNgvgEkmD81Ypqs5gAAAABJRU5ErkJggg==;" vertex="1" parent="1">
          <mxGeometry x="620" y="62" width="75.16" height="28" as="geometry" />
        </mxCell>
        <mxCell id="Xe9zop6OR9kDoCmG2jPb-11" value="对象列表" style="text;html=1;strokeColor=none;fillColor=none;align=center;verticalAlign=middle;whiteSpace=wrap;rounded=0;" vertex="1" parent="1">
          <mxGeometry x="545" y="60" width="60" height="30" as="geometry" />
        </mxCell>
        <mxCell id="Xe9zop6OR9kDoCmG2jPb-12" value="显示" style="rounded=0;whiteSpace=wrap;html=1;" vertex="1" parent="1">
          <mxGeometry x="450" y="90" width="90" height="30" as="geometry" />
        </mxCell>
        <mxCell id="Xe9zop6OR9kDoCmG2jPb-13" value="" style="rounded=0;whiteSpace=wrap;html=1;" vertex="1" parent="1">
          <mxGeometry x="540" y="90" width="80" height="30" as="geometry" />
        </mxCell>
        <mxCell id="Xe9zop6OR9kDoCmG2jPb-14" value="" style="rounded=0;whiteSpace=wrap;html=1;" vertex="1" parent="1">
          <mxGeometry x="620" y="90" width="80" height="30" as="geometry" />
        </mxCell>
        <mxCell id="Xe9zop6OR9kDoCmG2jPb-15" value="按类型" style="text;html=1;strokeColor=none;fillColor=none;align=center;verticalAlign=middle;whiteSpace=wrap;rounded=0;" vertex="1" parent="1">
          <mxGeometry x="480" y="135" width="50" height="25" as="geometry" />
        </mxCell>
        <mxCell id="Xe9zop6OR9kDoCmG2jPb-16" value="&lt;ul&gt;&lt;li&gt;独轮车&lt;/li&gt;&lt;li&gt;两轮车&lt;/li&gt;&lt;/ul&gt;" style="text;strokeColor=none;fillColor=none;html=1;whiteSpace=wrap;verticalAlign=middle;overflow=hidden;" vertex="1" parent="1">
          <mxGeometry x="490" y="135" width="100" height="80" as="geometry" />
        </mxCell>
        <mxCell id="Xe9zop6OR9kDoCmG2jPb-17" value="按形状" style="text;html=1;strokeColor=none;fillColor=none;align=center;verticalAlign=middle;whiteSpace=wrap;rounded=0;" vertex="1" parent="1">
          <mxGeometry x="481" y="200" width="50" height="25" as="geometry" />
        </mxCell>
        <mxCell id="Xe9zop6OR9kDoCmG2jPb-18" value="&lt;ul&gt;&lt;li&gt;2D&lt;/li&gt;&lt;li&gt;3D&lt;/li&gt;&lt;/ul&gt;" style="text;strokeColor=none;fillColor=none;html=1;whiteSpace=wrap;verticalAlign=middle;overflow=hidden;" vertex="1" parent="1">
          <mxGeometry x="490" y="210" width="100" height="75" as="geometry" />
        </mxCell>
        <mxCell id="t2s2HF7QJiBePI9HWgiF-3" value="操作：&amp;nbsp; 清空、绘制等按钮" style="rounded=0;whiteSpace=wrap;html=1;" vertex="1" parent="1">
          <mxGeometry x="260" y="150" width="170" height="60" as="geometry" />
        </mxCell>
        <mxCell id="t2s2HF7QJiBePI9HWgiF-4" value="2D √" style="rounded=0;whiteSpace=wrap;html=1;" vertex="1" parent="1">
          <mxGeometry x="260" y="120" width="50" height="30" as="geometry" />
        </mxCell>
        <mxCell id="t2s2HF7QJiBePI9HWgiF-5" value="3D √" style="rounded=0;whiteSpace=wrap;html=1;" vertex="1" parent="1">
          <mxGeometry x="310" y="120" width="50" height="30" as="geometry" />
        </mxCell>
        <mxCell id="t2s2HF7QJiBePI9HWgiF-6" value="显示&lt;br&gt;删除" style="rounded=0;whiteSpace=wrap;html=1;" vertex="1" parent="1">
          <mxGeometry x="180" y="150" width="80" height="60" as="geometry" />
        </mxCell>
        <mxCell id="vc3mqb2bWigAzi-l9O39-2" value="左侧为目标内容&lt;br&gt;上面为目标的内容显示&lt;br&gt;ID和类型&lt;br&gt;下面为对整个目标的操作&lt;br&gt;&lt;br&gt;右侧为具体形状的内容&lt;br&gt;上面选择形状&lt;br&gt;下面为对形状的操作" style="text;html=1;strokeColor=none;fillColor=none;align=center;verticalAlign=middle;whiteSpace=wrap;rounded=0;" vertex="1" parent="1">
          <mxGeometry x="10" y="62" width="140" height="190" as="geometry" />
        </mxCell>
      </root>
    </mxGraphModel>
  </diagram>
  <diagram id="y_qKgU2UZXhv42p7wdS4" name="形状">
    <mxGraphModel dx="1814" dy="861" grid="1" gridSize="10" guides="1" tooltips="1" connect="1" arrows="1" fold="1" page="1" pageScale="1" pageWidth="827" pageHeight="1169" math="0" shadow="0">
      <root>
        <mxCell id="0" />
        <mxCell id="1" parent="0" />
        <mxCell id="CuM5oMktbILfZ4fy7Y8N-1" value="" style="rounded=1;whiteSpace=wrap;html=1;arcSize=3;" vertex="1" parent="1">
          <mxGeometry x="350" y="80" width="250" height="480" as="geometry" />
        </mxCell>
        <mxCell id="CuM5oMktbILfZ4fy7Y8N-2" value="" style="shape=image;verticalLabelPosition=bottom;labelBackgroundColor=default;verticalAlign=top;aspect=fixed;imageAspect=0;image=data:image/png,iVBORw0KGgoAAAANSUhEUgAAAGYAAAAmCAYAAAA2h+4OAAAMQGlDQ1BJQ0MgUHJvZmlsZQAASImVVwdYU8kWnluSkEBoAaQTehMEpASQEkILIL0INkISIJQQA0HFjiwquHaxgA1dFVHsgNgRxcKi2LAvqKgo62LBrrxJAV33le/N982d//5z5j9nzswtA4DaKY5IlIOqA5ArLBDHhgTQxyWn0ElPgDKgAB1gAJw43HwRMzo6AsAy1P69vLsJEGl7zUGq9c/+/1o0ePx8LgBINMRpvHxuLsSHAMCruCJxAQBEKW8+tUAkxbACLTEMEOKFUpwhx1VSnCbH+2Q28bEsiFsAUFLhcMQZAKhegTy9kJsBNVT7IXYS8gRCANToEPvm5ubxIE6F2AbaiCCW6jPSftDJ+Jtm2rAmh5MxjOVzkRWlQEG+KIcz/f9Mx/8uuTmSIR9WsKpkikNjpXOGebuVnRcuxSoQ9wnTIqMg1oT4g4Ans4cYpWRKQhPk9qghN58FcwbXGaBOPE5gOMSGEAcLcyIjFHxauiCYDTHcIeg0QQE7HmJdiBfy84PiFDabxXmxCl9ofbqYxVTw5zlimV+prweS7ASmQv91Jp+t0MdUizLjkyCmQGxRKEiMhFgVYsf87Lhwhc2YokxW5JCNWBIrjd8C4li+MCRAro8VpouDYxX2Zbn5Q/PFNmcK2JEKfKAgMz5Unh+shcuRxQ/ngl3hC5kJQzr8/HERQ3Ph8QOD5HPHnvGFCXEKnQ+igoBY+VicIsqJVtjjZvycEClvBrFrfmGcYiyeWAA3pFwfTxcVRMfL48SLsjhh0fJ48GUgArBAIKADCaxpIA9kAUF7X0MfvJP3BAMOEIMMwAcOCmZoRJKsRwivcaAI/AkRH+QPjwuQ9fJBIeS/DrPyqwNIl/UWykZkgycQ54JwkAPvJbJRwmFvieAxZAT/8M6BlQvjzYFV2v/v+SH2O8OETISCkQx5pKsNWRKDiIHEUGIw0RbXx31xbzwCXv1hdcEZuOfQPL7bE54QOggPCTcIXYTbkwXF4p+iHAu6oH6wIhdpP+YCt4KabngA7gPVoTKug+sDB9wV+mHiftCzG2RZirilWaH/pP23GfywGgo7shMZJY8g+5Ntfh6paqfqNqwizfWP+ZHHmjacb9Zwz8/+WT9knwfb8J8tsYXYQawVO41dwI5hDYCOncQasTbsuBQP767Hst015C1WFk821BH8w9/Qykozme9U69Tr9EXeV8CfJn1HA1aeaLpYkJFZQGfCLwKfzhZyHUfSXZxcXACQfl/kr683MbLvBqLT9p2b/wcAPicHBwePfufCTgKw3wM+/ke+czYM+OlQBuD8Ea5EXCjncOmFAN8SavBJ0wPGwBzYwPm4AHfgDfxBEAgDUSAeJINJMPpMuM/FYCqYCeaBUlAOloHVYD3YBLaCnWAPOAAawDFwGpwDl8AVcAPchbunB7wA/eAd+IwgCAmhIjREDzFBLBF7xAVhIL5IEBKBxCLJSCqSgQgRCTITmY+UIyuQ9cgWpAbZjxxBTiMXkA7kNtKN9CKvkU8ohqqgWqgRaoWOQhkoEw1H49GJaAY6BS1CS9Al6Fq0Gt2N1qOn0UvoDbQLfYEOYABTxnQwU8wBY2AsLApLwdIxMTYbK8MqsGqsDmuC63wN68L6sI84EafhdNwB7uBQPAHn4lPw2fhifD2+E6/HW/BreDfej38jUAmGBHuCF4FNGEfIIEwllBIqCNsJhwln4bPUQ3hHJBJ1iNZED/gsJhOziDOIi4kbiHuJp4gdxEfEARKJpEeyJ/mQokgcUgGplLSOtJt0knSV1EP6oKSsZKLkohSslKIkVCpWqlDapXRC6arSU6XPZHWyJdmLHEXmkaeTl5K3kZvIl8k95M8UDYo1xYcST8mizKOspdRRzlLuUd4oKyubKXsqxygLlOcqr1Xep3xeuVv5o4qmip0KS2WCikRlicoOlVMqt1XeUKlUK6o/NYVaQF1CraGeoT6gflClqTqqslV5qnNUK1XrVa+qvlQjq1mqMdUmqRWpVagdVLus1qdOVrdSZ6lz1GerV6ofUe9UH9CgaThrRGnkaizW2KVxQeOZJknTSjNIk6dZorlV84zmIxpGM6exaFzafNo22llajxZRy1qLrZWlVa61R6tdq19bU9tVO1F7mnal9nHtLh1Mx0qHrZOjs1TngM5NnU8jjEYwR/BHLBpRN+LqiPe6Brr+unzdMt29ujd0P+nR9YL0svWW6zXo3dfH9e30Y/Sn6m/UP6vfZ6Bl4G3ANSgzOGBwxxA1tDOMNZxhuNWwzXDAyNgoxEhktM7ojFGfsY6xv3GW8SrjE8a9JjQTXxOBySqTkybP6dp0Jj2HvpbeQu83NTQNNZWYbjFtN/1sZm2WYFZsttfsvjnFnGGebr7KvNm838LEYqzFTItaizuWZEuGZablGstWy/dW1lZJVgusGqyeWetas62LrGut79lQbfxspthU21y3JdoybLNtN9hesUPt3Owy7SrtLtuj9u72AvsN9h0jCSM9RwpHVo/sdFBxYDoUOtQ6dDvqOEY4Fjs2OL4cZTEqZdTyUa2jvjm5OeU4bXO666zpHOZc7Nzk/NrFzoXrUulyfTR1dPDoOaMbR79ytXflu250veVGcxvrtsCt2e2ru4e72L3OvdfDwiPVo8qjk6HFiGYsZpz3JHgGeM7xPOb50cvdq8DrgNdf3g7e2d67vJ+NsR7DH7NtzCMfMx+OzxafLl+6b6rvZt8uP1M/jl+130N/c3+e/3b/p0xbZhZzN/NlgFOAOOBwwHuWF2sW61QgFhgSWBbYHqQZlBC0PuhBsFlwRnBtcH+IW8iMkFOhhNDw0OWhnWwjNpddw+4P8wibFdYSrhIeF74+/GGEXYQ4omksOjZs7Mqx9yItI4WRDVEgih21Mup+tHX0lOijMcSY6JjKmCexzrEzY1vjaHGT43bFvYsPiF8afzfBJkGS0JyoljghsSbxfVJg0oqkrnGjxs0adylZP1mQ3JhCSklM2Z4yMD5o/OrxPRPcJpROuDnReuK0iRcm6U/KmXR8stpkzuSDqYTUpNRdqV84UZxqzkAaO60qrZ/L4q7hvuD581bxevk+/BX8p+k+6SvSn2X4ZKzM6M30y6zI7BOwBOsFr7JCszZlvc+Oyt6RPZiTlLM3Vyk3NfeIUFOYLWzJM86bltchsheVirqmeE1ZPaVfHC7eno/kT8xvLNCCP/JtEhvJL5LuQt/CysIPUxOnHpymMU04rW263fRF058WBRf9NgOfwZ3RPNN05ryZ3bOYs7bMRmanzW6eYz6nZE7P3JC5O+dR5mXP+73YqXhF8dv5SfObSoxK5pY8+iXkl9pS1VJxaecC7wWbFuILBQvbF41etG7RtzJe2cVyp/KK8i+LuYsv/ur869pfB5ekL2lf6r504zLiMuGym8v9lu9cobGiaMWjlWNX1q+irypb9Xb15NUXKlwrNq2hrJGs6VobsbZxncW6Zeu+rM9cf6MyoHJvlWHVoqr3G3gbrm7031i3yWhT+aZPmwWbb20J2VJfbVVdsZW4tXDrk22J21p/Y/xWs11/e/n2rzuEO7p2xu5sqfGoqdlluGtpLVorqe3dPWH3lT2BexrrHOq27NXZW74P7JPse74/df/NA+EHmg8yDtYdsjxUdZh2uKweqZ9e39+Q2dDVmNzYcSTsSHOTd9Pho45HdxwzPVZ5XPv40hOUEyUnBk8WnRw4JTrVdzrj9KPmyc13z4w7c70lpqX9bPjZ8+eCz51pZbaePO9z/tgFrwtHLjIuNlxyv1Tf5tZ2+He33w+3u7fXX/a43HjF80pTx5iOE1f9rp6+Fnjt3HX29Us3Im903Ey4eatzQmfXLd6tZ7dzbr+6U3jn89259wj3yu6r3694YPig+g/bP/Z2uXcd7w7sbnsY9/DuI+6jF4/zH3/pKXlCfVLx1ORpzTOXZ8d6g3uvPB//vOeF6MXnvtI/Nf6semnz8tBf/n+19Y/r73klfjX4evEbvTc73rq+bR6IHnjwLvfd5/dlH/Q+7PzI+Nj6KenT089Tv5C+rP1q+7XpW/i3e4O5g4Mijpgj+xXAYEXT0wF4vQMAajIANHg+o4yXn/9kBZGfWWUI/CcsPyPKijsAdfD/PaYP/t10ArBvGzx+QX21CQBEUwGI9wTo6NHDdeisJjtXSgsRngM2s7+m5aaBf1PkZ84f4v65BVJVV/Bz+y+Manx37QeLzgAAAGxlWElmTU0AKgAAAAgABAEaAAUAAAABAAAAPgEbAAUAAAABAAAARgEoAAMAAAABAAIAAIdpAAQAAAABAAAATgAAAAAAAACQAAAAAQAAAJAAAAABAAKgAgAEAAAAAQAAAGagAwAEAAAAAQAAACYAAAAAs56sqQAAAAlwSFlzAAAWJQAAFiUBSVIk8AAAAi5JREFUaAXtmEFygzAMRUmnyxyAHexy/4PkANnBjgOwb/OZ+TMeNwbJwbbaSjOpySCZLz1bLrl8Pa1zM1eBD3OKXNBWAQdjdCE4GAdjtAJGZfmOcTBGK2BUlu8YB2O0Ahmy1nVVR2ljfMcoSzxNU3e/37tlWcSR8EUMYqXmYKSVevqhsPM8bxGPx0MEB1DgC0OsFE5TMBCtWXlbdo3+oBURCiUcwQmhMAZzSNpaMzAUfZQcE2o9Xq/X7na7/ZCR0s/84gDMgbmOrAmYWHQquSPxte/3fS+CE+dHnYCCOST2KXE60yclGnBgUuFnatLMRX3Uy9jwe3jN+xooiLnU/Nk/BYXiMWoTCGNrXktyoZ6cnKq1MmkiWG3wtW6pthbrzoGCOaqASUGBaHxi+ytwcqGgHsXPmD0o7NcQEvdlfg994PdfrOiOkUJJtQXrOyeVHxfPO/qLgcFLFFc9hWJMbe89OJIXsvAZNa6PoFBDLpxiYPASNQwD9W1jCgqdXsHBHJIXMs5RY0xBQX74xJYDp+gZM47jphE/QxxBYTI8U5AMoHAO3m897kGhdmiMuwW/hz57uVR5j0Er0q76nJi9RM+4J4WCZ2l8X2kr1srCh2mhIDYnJnzm2de1z8wqYM4uUov5sFBqnpkORkEZ5x3haM5M/kOgOTOrnDGK3H+Fa875p41xMEaXgrcyB2O0AkZl+Y5xMEYrYFSW7xgHY7QCRmX5jnEwRitgVJbvGKNgvgEkmD81Ypqs5gAAAABJRU5ErkJggg==;" vertex="1" parent="1">
          <mxGeometry x="520" y="82" width="75.16" height="28" as="geometry" />
        </mxCell>
        <mxCell id="CuM5oMktbILfZ4fy7Y8N-3" value="形状" style="text;html=1;strokeColor=none;fillColor=none;align=center;verticalAlign=middle;whiteSpace=wrap;rounded=0;" vertex="1" parent="1">
          <mxGeometry x="445" y="80" width="60" height="30" as="geometry" />
        </mxCell>
        <mxCell id="CuM5oMktbILfZ4fy7Y8N-4" value="" style="rounded=0;whiteSpace=wrap;html=1;" vertex="1" parent="1">
          <mxGeometry x="350" y="110" width="250" height="450" as="geometry" />
        </mxCell>
        <mxCell id="CuM5oMktbILfZ4fy7Y8N-5" value="&amp;nbsp; &amp;nbsp; &amp;nbsp; 3轮车" style="rounded=0;whiteSpace=wrap;html=1;align=left;" vertex="1" parent="1">
          <mxGeometry x="350" y="110" width="250" height="30" as="geometry" />
        </mxCell>
        <mxCell id="CuM5oMktbILfZ4fy7Y8N-6" value="&amp;nbsp; &amp;nbsp; &amp;nbsp; 4轮车" style="rounded=0;whiteSpace=wrap;html=1;align=left;" vertex="1" parent="1">
          <mxGeometry x="350" y="140" width="250" height="30" as="geometry" />
        </mxCell>
        <mxCell id="CuM5oMktbILfZ4fy7Y8N-7" value="&amp;nbsp; &amp;nbsp; &amp;nbsp; 5轮车" style="rounded=0;whiteSpace=wrap;html=1;align=left;" vertex="1" parent="1">
          <mxGeometry x="350" y="170" width="250" height="30" as="geometry" />
        </mxCell>
        <mxCell id="CuM5oMktbILfZ4fy7Y8N-8" value="&amp;nbsp; &amp;nbsp; &amp;nbsp; 6轮车" style="rounded=0;whiteSpace=wrap;html=1;align=left;" vertex="1" parent="1">
          <mxGeometry x="350" y="200" width="250" height="30" as="geometry" />
        </mxCell>
        <mxCell id="CuM5oMktbILfZ4fy7Y8N-9" value="&amp;nbsp; &amp;nbsp; &amp;nbsp; 7轮车" style="rounded=0;whiteSpace=wrap;html=1;align=left;" vertex="1" parent="1">
          <mxGeometry x="350" y="230" width="250" height="30" as="geometry" />
        </mxCell>
        <mxCell id="CuM5oMktbILfZ4fy7Y8N-10" value="&amp;nbsp; &amp;nbsp; &amp;nbsp; 8轮车" style="rounded=0;whiteSpace=wrap;html=1;align=left;" vertex="1" parent="1">
          <mxGeometry x="350" y="260" width="250" height="30" as="geometry" />
        </mxCell>
        <mxCell id="CuM5oMktbILfZ4fy7Y8N-12" value="&amp;nbsp; &amp;nbsp; &amp;nbsp;选择形状" style="rounded=0;whiteSpace=wrap;html=1;align=left;" vertex="1" parent="1">
          <mxGeometry x="350" y="530" width="250" height="30" as="geometry" />
        </mxCell>
        <mxCell id="CuM5oMktbILfZ4fy7Y8N-13" value="" style="rounded=0;whiteSpace=wrap;html=1;" vertex="1" parent="1">
          <mxGeometry x="210" y="215" width="120" height="345" as="geometry" />
        </mxCell>
        <mxCell id="CuM5oMktbILfZ4fy7Y8N-14" value="车道线" style="text;html=1;strokeColor=none;fillColor=none;align=center;verticalAlign=middle;whiteSpace=wrap;rounded=0;" vertex="1" parent="1">
          <mxGeometry x="210" y="275" width="60" height="30" as="geometry" />
        </mxCell>
        <mxCell id="CuM5oMktbILfZ4fy7Y8N-15" value="障碍物" style="text;html=1;strokeColor=none;fillColor=none;align=center;verticalAlign=middle;whiteSpace=wrap;rounded=0;" vertex="1" parent="1">
          <mxGeometry x="210" y="305" width="60" height="30" as="geometry" />
        </mxCell>
        <mxCell id="CuM5oMktbILfZ4fy7Y8N-16" value="车位" style="text;html=1;strokeColor=none;fillColor=none;align=center;verticalAlign=middle;whiteSpace=wrap;rounded=0;" vertex="1" parent="1">
          <mxGeometry x="210" y="365" width="60" height="30" as="geometry" />
        </mxCell>
        <mxCell id="CuM5oMktbILfZ4fy7Y8N-17" value="两轮车&lt;br&gt;三轮车" style="text;html=1;strokeColor=none;fillColor=none;align=center;verticalAlign=middle;whiteSpace=wrap;rounded=0;" vertex="1" parent="1">
          <mxGeometry x="220" y="335" width="60" height="30" as="geometry" />
        </mxCell>
        <mxCell id="CuM5oMktbILfZ4fy7Y8N-18" value="预设1" style="text;html=1;strokeColor=none;fillColor=none;align=center;verticalAlign=middle;whiteSpace=wrap;rounded=0;" vertex="1" parent="1">
          <mxGeometry x="210" y="435" width="60" height="30" as="geometry" />
        </mxCell>
        <mxCell id="CuM5oMktbILfZ4fy7Y8N-19" value="应用" style="rounded=0;whiteSpace=wrap;html=1;" vertex="1" parent="1">
          <mxGeometry x="210" y="530" width="120" height="30" as="geometry" />
        </mxCell>
        <mxCell id="CuM5oMktbILfZ4fy7Y8N-20" value="模版" style="rounded=0;whiteSpace=wrap;html=1;" vertex="1" parent="1">
          <mxGeometry x="210" y="405" width="120" height="30" as="geometry" />
        </mxCell>
        <mxCell id="CuM5oMktbILfZ4fy7Y8N-21" value="过滤" style="rounded=0;whiteSpace=wrap;html=1;" vertex="1" parent="1">
          <mxGeometry x="210" y="245" width="120" height="30" as="geometry" />
        </mxCell>
        <mxCell id="CuM5oMktbILfZ4fy7Y8N-22" value="选择形状" style="rounded=0;whiteSpace=wrap;html=1;" vertex="1" parent="1">
          <mxGeometry x="210" y="215" width="120" height="30" as="geometry" />
        </mxCell>
        <mxCell id="75Sgyp8GOY-cicrLImc2-1" value="新建" style="rounded=0;whiteSpace=wrap;html=1;" vertex="1" parent="1">
          <mxGeometry x="550" y="115" width="40" height="20" as="geometry" />
        </mxCell>
        <mxCell id="75Sgyp8GOY-cicrLImc2-2" value="新建" style="rounded=0;whiteSpace=wrap;html=1;" vertex="1" parent="1">
          <mxGeometry x="550" y="145" width="40" height="20" as="geometry" />
        </mxCell>
        <mxCell id="rHsU1TLHZTHXxPGSue9Q-1" value="&lt;br&gt;从所有的目标类型中选择" style="text;html=1;strokeColor=none;fillColor=none;align=center;verticalAlign=middle;whiteSpace=wrap;rounded=0;" vertex="1" parent="1">
          <mxGeometry x="40" y="252.5" width="150" height="15" as="geometry" />
        </mxCell>
        <mxCell id="rHsU1TLHZTHXxPGSue9Q-2" value="已选择的目标" style="text;html=1;strokeColor=none;fillColor=none;align=center;verticalAlign=middle;whiteSpace=wrap;rounded=0;" vertex="1" parent="1">
          <mxGeometry x="610" y="110" width="150" height="15" as="geometry" />
        </mxCell>
      </root>
    </mxGraphModel>
  </diagram>
  <diagram id="3dUgFZQVnEI7KJXhphM8" name="文件列表">
    <mxGraphModel dx="1814" dy="861" grid="1" gridSize="10" guides="1" tooltips="1" connect="1" arrows="1" fold="1" page="1" pageScale="1" pageWidth="827" pageHeight="1169" math="0" shadow="0">
      <root>
        <mxCell id="0" />
        <mxCell id="1" parent="0" />
        <mxCell id="VwENDaW99S2danPOUUGB-1" value="" style="rounded=1;whiteSpace=wrap;html=1;arcSize=3;" vertex="1" parent="1">
          <mxGeometry x="180" y="60" width="250" height="480" as="geometry" />
        </mxCell>
        <mxCell id="VwENDaW99S2danPOUUGB-2" value="" style="shape=image;verticalLabelPosition=bottom;labelBackgroundColor=default;verticalAlign=top;aspect=fixed;imageAspect=0;image=data:image/png,iVBORw0KGgoAAAANSUhEUgAAAGYAAAAmCAYAAAA2h+4OAAAMQGlDQ1BJQ0MgUHJvZmlsZQAASImVVwdYU8kWnluSkEBoAaQTehMEpASQEkILIL0INkISIJQQA0HFjiwquHaxgA1dFVHsgNgRxcKi2LAvqKgo62LBrrxJAV33le/N982d//5z5j9nzswtA4DaKY5IlIOqA5ArLBDHhgTQxyWn0ElPgDKgAB1gAJw43HwRMzo6AsAy1P69vLsJEGl7zUGq9c/+/1o0ePx8LgBINMRpvHxuLsSHAMCruCJxAQBEKW8+tUAkxbACLTEMEOKFUpwhx1VSnCbH+2Q28bEsiFsAUFLhcMQZAKhegTy9kJsBNVT7IXYS8gRCANToEPvm5ubxIE6F2AbaiCCW6jPSftDJ+Jtm2rAmh5MxjOVzkRWlQEG+KIcz/f9Mx/8uuTmSIR9WsKpkikNjpXOGebuVnRcuxSoQ9wnTIqMg1oT4g4Ans4cYpWRKQhPk9qghN58FcwbXGaBOPE5gOMSGEAcLcyIjFHxauiCYDTHcIeg0QQE7HmJdiBfy84PiFDabxXmxCl9ofbqYxVTw5zlimV+prweS7ASmQv91Jp+t0MdUizLjkyCmQGxRKEiMhFgVYsf87Lhwhc2YokxW5JCNWBIrjd8C4li+MCRAro8VpouDYxX2Zbn5Q/PFNmcK2JEKfKAgMz5Unh+shcuRxQ/ngl3hC5kJQzr8/HERQ3Ph8QOD5HPHnvGFCXEKnQ+igoBY+VicIsqJVtjjZvycEClvBrFrfmGcYiyeWAA3pFwfTxcVRMfL48SLsjhh0fJ48GUgArBAIKADCaxpIA9kAUF7X0MfvJP3BAMOEIMMwAcOCmZoRJKsRwivcaAI/AkRH+QPjwuQ9fJBIeS/DrPyqwNIl/UWykZkgycQ54JwkAPvJbJRwmFvieAxZAT/8M6BlQvjzYFV2v/v+SH2O8OETISCkQx5pKsNWRKDiIHEUGIw0RbXx31xbzwCXv1hdcEZuOfQPL7bE54QOggPCTcIXYTbkwXF4p+iHAu6oH6wIhdpP+YCt4KabngA7gPVoTKug+sDB9wV+mHiftCzG2RZirilWaH/pP23GfywGgo7shMZJY8g+5Ntfh6paqfqNqwizfWP+ZHHmjacb9Zwz8/+WT9knwfb8J8tsYXYQawVO41dwI5hDYCOncQasTbsuBQP767Hst015C1WFk821BH8w9/Qykozme9U69Tr9EXeV8CfJn1HA1aeaLpYkJFZQGfCLwKfzhZyHUfSXZxcXACQfl/kr683MbLvBqLT9p2b/wcAPicHBwePfufCTgKw3wM+/ke+czYM+OlQBuD8Ea5EXCjncOmFAN8SavBJ0wPGwBzYwPm4AHfgDfxBEAgDUSAeJINJMPpMuM/FYCqYCeaBUlAOloHVYD3YBLaCnWAPOAAawDFwGpwDl8AVcAPchbunB7wA/eAd+IwgCAmhIjREDzFBLBF7xAVhIL5IEBKBxCLJSCqSgQgRCTITmY+UIyuQ9cgWpAbZjxxBTiMXkA7kNtKN9CKvkU8ohqqgWqgRaoWOQhkoEw1H49GJaAY6BS1CS9Al6Fq0Gt2N1qOn0UvoDbQLfYEOYABTxnQwU8wBY2AsLApLwdIxMTYbK8MqsGqsDmuC63wN68L6sI84EafhdNwB7uBQPAHn4lPw2fhifD2+E6/HW/BreDfej38jUAmGBHuCF4FNGEfIIEwllBIqCNsJhwln4bPUQ3hHJBJ1iNZED/gsJhOziDOIi4kbiHuJp4gdxEfEARKJpEeyJ/mQokgcUgGplLSOtJt0knSV1EP6oKSsZKLkohSslKIkVCpWqlDapXRC6arSU6XPZHWyJdmLHEXmkaeTl5K3kZvIl8k95M8UDYo1xYcST8mizKOspdRRzlLuUd4oKyubKXsqxygLlOcqr1Xep3xeuVv5o4qmip0KS2WCikRlicoOlVMqt1XeUKlUK6o/NYVaQF1CraGeoT6gflClqTqqslV5qnNUK1XrVa+qvlQjq1mqMdUmqRWpVagdVLus1qdOVrdSZ6lz1GerV6ofUe9UH9CgaThrRGnkaizW2KVxQeOZJknTSjNIk6dZorlV84zmIxpGM6exaFzafNo22llajxZRy1qLrZWlVa61R6tdq19bU9tVO1F7mnal9nHtLh1Mx0qHrZOjs1TngM5NnU8jjEYwR/BHLBpRN+LqiPe6Brr+unzdMt29ujd0P+nR9YL0svWW6zXo3dfH9e30Y/Sn6m/UP6vfZ6Bl4G3ANSgzOGBwxxA1tDOMNZxhuNWwzXDAyNgoxEhktM7ojFGfsY6xv3GW8SrjE8a9JjQTXxOBySqTkybP6dp0Jj2HvpbeQu83NTQNNZWYbjFtN/1sZm2WYFZsttfsvjnFnGGebr7KvNm838LEYqzFTItaizuWZEuGZablGstWy/dW1lZJVgusGqyeWetas62LrGut79lQbfxspthU21y3JdoybLNtN9hesUPt3Owy7SrtLtuj9u72AvsN9h0jCSM9RwpHVo/sdFBxYDoUOtQ6dDvqOEY4Fjs2OL4cZTEqZdTyUa2jvjm5OeU4bXO666zpHOZc7Nzk/NrFzoXrUulyfTR1dPDoOaMbR79ytXflu250veVGcxvrtsCt2e2ru4e72L3OvdfDwiPVo8qjk6HFiGYsZpz3JHgGeM7xPOb50cvdq8DrgNdf3g7e2d67vJ+NsR7DH7NtzCMfMx+OzxafLl+6b6rvZt8uP1M/jl+130N/c3+e/3b/p0xbZhZzN/NlgFOAOOBwwHuWF2sW61QgFhgSWBbYHqQZlBC0PuhBsFlwRnBtcH+IW8iMkFOhhNDw0OWhnWwjNpddw+4P8wibFdYSrhIeF74+/GGEXYQ4omksOjZs7Mqx9yItI4WRDVEgih21Mup+tHX0lOijMcSY6JjKmCexzrEzY1vjaHGT43bFvYsPiF8afzfBJkGS0JyoljghsSbxfVJg0oqkrnGjxs0adylZP1mQ3JhCSklM2Z4yMD5o/OrxPRPcJpROuDnReuK0iRcm6U/KmXR8stpkzuSDqYTUpNRdqV84UZxqzkAaO60qrZ/L4q7hvuD581bxevk+/BX8p+k+6SvSn2X4ZKzM6M30y6zI7BOwBOsFr7JCszZlvc+Oyt6RPZiTlLM3Vyk3NfeIUFOYLWzJM86bltchsheVirqmeE1ZPaVfHC7eno/kT8xvLNCCP/JtEhvJL5LuQt/CysIPUxOnHpymMU04rW263fRF058WBRf9NgOfwZ3RPNN05ryZ3bOYs7bMRmanzW6eYz6nZE7P3JC5O+dR5mXP+73YqXhF8dv5SfObSoxK5pY8+iXkl9pS1VJxaecC7wWbFuILBQvbF41etG7RtzJe2cVyp/KK8i+LuYsv/ur869pfB5ekL2lf6r504zLiMuGym8v9lu9cobGiaMWjlWNX1q+irypb9Xb15NUXKlwrNq2hrJGs6VobsbZxncW6Zeu+rM9cf6MyoHJvlWHVoqr3G3gbrm7031i3yWhT+aZPmwWbb20J2VJfbVVdsZW4tXDrk22J21p/Y/xWs11/e/n2rzuEO7p2xu5sqfGoqdlluGtpLVorqe3dPWH3lT2BexrrHOq27NXZW74P7JPse74/df/NA+EHmg8yDtYdsjxUdZh2uKweqZ9e39+Q2dDVmNzYcSTsSHOTd9Pho45HdxwzPVZ5XPv40hOUEyUnBk8WnRw4JTrVdzrj9KPmyc13z4w7c70lpqX9bPjZ8+eCz51pZbaePO9z/tgFrwtHLjIuNlxyv1Tf5tZ2+He33w+3u7fXX/a43HjF80pTx5iOE1f9rp6+Fnjt3HX29Us3Im903Ey4eatzQmfXLd6tZ7dzbr+6U3jn89259wj3yu6r3694YPig+g/bP/Z2uXcd7w7sbnsY9/DuI+6jF4/zH3/pKXlCfVLx1ORpzTOXZ8d6g3uvPB//vOeF6MXnvtI/Nf6semnz8tBf/n+19Y/r73klfjX4evEbvTc73rq+bR6IHnjwLvfd5/dlH/Q+7PzI+Nj6KenT089Tv5C+rP1q+7XpW/i3e4O5g4Mijpgj+xXAYEXT0wF4vQMAajIANHg+o4yXn/9kBZGfWWUI/CcsPyPKijsAdfD/PaYP/t10ArBvGzx+QX21CQBEUwGI9wTo6NHDdeisJjtXSgsRngM2s7+m5aaBf1PkZ84f4v65BVJVV/Bz+y+Manx37QeLzgAAAGxlWElmTU0AKgAAAAgABAEaAAUAAAABAAAAPgEbAAUAAAABAAAARgEoAAMAAAABAAIAAIdpAAQAAAABAAAATgAAAAAAAACQAAAAAQAAAJAAAAABAAKgAgAEAAAAAQAAAGagAwAEAAAAAQAAACYAAAAAs56sqQAAAAlwSFlzAAAWJQAAFiUBSVIk8AAAAi5JREFUaAXtmEFygzAMRUmnyxyAHexy/4PkANnBjgOwb/OZ+TMeNwbJwbbaSjOpySCZLz1bLrl8Pa1zM1eBD3OKXNBWAQdjdCE4GAdjtAJGZfmOcTBGK2BUlu8YB2O0Ahmy1nVVR2ljfMcoSzxNU3e/37tlWcSR8EUMYqXmYKSVevqhsPM8bxGPx0MEB1DgC0OsFE5TMBCtWXlbdo3+oBURCiUcwQmhMAZzSNpaMzAUfZQcE2o9Xq/X7na7/ZCR0s/84gDMgbmOrAmYWHQquSPxte/3fS+CE+dHnYCCOST2KXE60yclGnBgUuFnatLMRX3Uy9jwe3jN+xooiLnU/Nk/BYXiMWoTCGNrXktyoZ6cnKq1MmkiWG3wtW6pthbrzoGCOaqASUGBaHxi+ytwcqGgHsXPmD0o7NcQEvdlfg994PdfrOiOkUJJtQXrOyeVHxfPO/qLgcFLFFc9hWJMbe89OJIXsvAZNa6PoFBDLpxiYPASNQwD9W1jCgqdXsHBHJIXMs5RY0xBQX74xJYDp+gZM47jphE/QxxBYTI8U5AMoHAO3m897kGhdmiMuwW/hz57uVR5j0Er0q76nJi9RM+4J4WCZ2l8X2kr1srCh2mhIDYnJnzm2de1z8wqYM4uUov5sFBqnpkORkEZ5x3haM5M/kOgOTOrnDGK3H+Fa875p41xMEaXgrcyB2O0AkZl+Y5xMEYrYFSW7xgHY7QCRmX5jnEwRitgVJbvGKNgvgEkmD81Ypqs5gAAAABJRU5ErkJggg==;" vertex="1" parent="1">
          <mxGeometry x="350" y="62" width="75.16" height="28" as="geometry" />
        </mxCell>
        <mxCell id="VwENDaW99S2danPOUUGB-3" value="文件列表" style="text;html=1;strokeColor=none;fillColor=none;align=center;verticalAlign=middle;whiteSpace=wrap;rounded=0;" vertex="1" parent="1">
          <mxGeometry x="275" y="60" width="60" height="30" as="geometry" />
        </mxCell>
        <mxCell id="VwENDaW99S2danPOUUGB-4" value="" style="rounded=0;whiteSpace=wrap;html=1;" vertex="1" parent="1">
          <mxGeometry x="180" y="90" width="250" height="420" as="geometry" />
        </mxCell>
        <mxCell id="VwENDaW99S2danPOUUGB-5" value="上一个" style="rounded=0;whiteSpace=wrap;html=1;" vertex="1" parent="1">
          <mxGeometry x="180" y="510" width="80" height="30" as="geometry" />
        </mxCell>
        <mxCell id="VwENDaW99S2danPOUUGB-6" value="下一个" style="rounded=0;whiteSpace=wrap;html=1;" vertex="1" parent="1">
          <mxGeometry x="350" y="510" width="80" height="30" as="geometry" />
        </mxCell>
        <mxCell id="VwENDaW99S2danPOUUGB-7" value="1/100" style="text;html=1;strokeColor=none;fillColor=none;align=center;verticalAlign=middle;whiteSpace=wrap;rounded=0;" vertex="1" parent="1">
          <mxGeometry x="275" y="510" width="60" height="30" as="geometry" />
        </mxCell>
        <mxCell id="VwENDaW99S2danPOUUGB-8" value="&lt;table border=&quot;1&quot; width=&quot;100%&quot; height=&quot;100%&quot; cellpadding=&quot;4&quot; style=&quot;width:100%;height:100%;border-collapse:collapse;&quot;&gt;&lt;tbody&gt;&lt;tr&gt;&lt;th align=&quot;center&quot;&gt;&lt;b&gt;xxx.jpg(当前)&lt;/b&gt;&lt;/th&gt;&lt;/tr&gt;&lt;tr&gt;&lt;td align=&quot;center&quot;&gt;xxx.jpg&lt;/td&gt;&lt;/tr&gt;&lt;tr&gt;&lt;td align=&quot;center&quot;&gt;xxx.jpg&lt;/td&gt;&lt;/tr&gt;&lt;/tbody&gt;&lt;/table&gt;" style="text;html=1;whiteSpace=wrap;strokeColor=none;fillColor=none;overflow=fill;" vertex="1" parent="1">
          <mxGeometry x="180" y="90" width="250" height="130" as="geometry" />
        </mxCell>
        <mxCell id="ecTs2xv1Lb_PZHu3KIgB-1" value="筛选" style="rounded=0;whiteSpace=wrap;html=1;" vertex="1" parent="1">
          <mxGeometry x="180" y="480" width="250" height="30" as="geometry" />
        </mxCell>
        <mxCell id="1KrwOqtU3w2R93SSvdvn-1" value="可根据天气等属性来选择" style="text;html=1;strokeColor=none;fillColor=none;align=center;verticalAlign=middle;whiteSpace=wrap;rounded=0;" vertex="1" parent="1">
          <mxGeometry x="320" y="480" width="370" height="30" as="geometry" />
        </mxCell>
      </root>
    </mxGraphModel>
  </diagram>
  <diagram id="5RePa02AeIuydOHVkQyd" name="属性">
    <mxGraphModel dx="1814" dy="861" grid="1" gridSize="10" guides="1" tooltips="1" connect="1" arrows="1" fold="1" page="1" pageScale="1" pageWidth="827" pageHeight="1169" math="0" shadow="0">
      <root>
        <mxCell id="0" />
        <mxCell id="1" parent="0" />
        <mxCell id="K7eEEdeZ7u49Gsxe_DxU-1" value="" style="rounded=1;whiteSpace=wrap;html=1;arcSize=3;" vertex="1" parent="1">
          <mxGeometry x="180" y="60" width="250" height="480" as="geometry" />
        </mxCell>
        <mxCell id="K7eEEdeZ7u49Gsxe_DxU-2" value="" style="shape=image;verticalLabelPosition=bottom;labelBackgroundColor=default;verticalAlign=top;aspect=fixed;imageAspect=0;image=data:image/png,iVBORw0KGgoAAAANSUhEUgAAAGYAAAAmCAYAAAA2h+4OAAAMQGlDQ1BJQ0MgUHJvZmlsZQAASImVVwdYU8kWnluSkEBoAaQTehMEpASQEkILIL0INkISIJQQA0HFjiwquHaxgA1dFVHsgNgRxcKi2LAvqKgo62LBrrxJAV33le/N982d//5z5j9nzswtA4DaKY5IlIOqA5ArLBDHhgTQxyWn0ElPgDKgAB1gAJw43HwRMzo6AsAy1P69vLsJEGl7zUGq9c/+/1o0ePx8LgBINMRpvHxuLsSHAMCruCJxAQBEKW8+tUAkxbACLTEMEOKFUpwhx1VSnCbH+2Q28bEsiFsAUFLhcMQZAKhegTy9kJsBNVT7IXYS8gRCANToEPvm5ubxIE6F2AbaiCCW6jPSftDJ+Jtm2rAmh5MxjOVzkRWlQEG+KIcz/f9Mx/8uuTmSIR9WsKpkikNjpXOGebuVnRcuxSoQ9wnTIqMg1oT4g4Ans4cYpWRKQhPk9qghN58FcwbXGaBOPE5gOMSGEAcLcyIjFHxauiCYDTHcIeg0QQE7HmJdiBfy84PiFDabxXmxCl9ofbqYxVTw5zlimV+prweS7ASmQv91Jp+t0MdUizLjkyCmQGxRKEiMhFgVYsf87Lhwhc2YokxW5JCNWBIrjd8C4li+MCRAro8VpouDYxX2Zbn5Q/PFNmcK2JEKfKAgMz5Unh+shcuRxQ/ngl3hC5kJQzr8/HERQ3Ph8QOD5HPHnvGFCXEKnQ+igoBY+VicIsqJVtjjZvycEClvBrFrfmGcYiyeWAA3pFwfTxcVRMfL48SLsjhh0fJ48GUgArBAIKADCaxpIA9kAUF7X0MfvJP3BAMOEIMMwAcOCmZoRJKsRwivcaAI/AkRH+QPjwuQ9fJBIeS/DrPyqwNIl/UWykZkgycQ54JwkAPvJbJRwmFvieAxZAT/8M6BlQvjzYFV2v/v+SH2O8OETISCkQx5pKsNWRKDiIHEUGIw0RbXx31xbzwCXv1hdcEZuOfQPL7bE54QOggPCTcIXYTbkwXF4p+iHAu6oH6wIhdpP+YCt4KabngA7gPVoTKug+sDB9wV+mHiftCzG2RZirilWaH/pP23GfywGgo7shMZJY8g+5Ntfh6paqfqNqwizfWP+ZHHmjacb9Zwz8/+WT9knwfb8J8tsYXYQawVO41dwI5hDYCOncQasTbsuBQP767Hst015C1WFk821BH8w9/Qykozme9U69Tr9EXeV8CfJn1HA1aeaLpYkJFZQGfCLwKfzhZyHUfSXZxcXACQfl/kr683MbLvBqLT9p2b/wcAPicHBwePfufCTgKw3wM+/ke+czYM+OlQBuD8Ea5EXCjncOmFAN8SavBJ0wPGwBzYwPm4AHfgDfxBEAgDUSAeJINJMPpMuM/FYCqYCeaBUlAOloHVYD3YBLaCnWAPOAAawDFwGpwDl8AVcAPchbunB7wA/eAd+IwgCAmhIjREDzFBLBF7xAVhIL5IEBKBxCLJSCqSgQgRCTITmY+UIyuQ9cgWpAbZjxxBTiMXkA7kNtKN9CKvkU8ohqqgWqgRaoWOQhkoEw1H49GJaAY6BS1CS9Al6Fq0Gt2N1qOn0UvoDbQLfYEOYABTxnQwU8wBY2AsLApLwdIxMTYbK8MqsGqsDmuC63wN68L6sI84EafhdNwB7uBQPAHn4lPw2fhifD2+E6/HW/BreDfej38jUAmGBHuCF4FNGEfIIEwllBIqCNsJhwln4bPUQ3hHJBJ1iNZED/gsJhOziDOIi4kbiHuJp4gdxEfEARKJpEeyJ/mQokgcUgGplLSOtJt0knSV1EP6oKSsZKLkohSslKIkVCpWqlDapXRC6arSU6XPZHWyJdmLHEXmkaeTl5K3kZvIl8k95M8UDYo1xYcST8mizKOspdRRzlLuUd4oKyubKXsqxygLlOcqr1Xep3xeuVv5o4qmip0KS2WCikRlicoOlVMqt1XeUKlUK6o/NYVaQF1CraGeoT6gflClqTqqslV5qnNUK1XrVa+qvlQjq1mqMdUmqRWpVagdVLus1qdOVrdSZ6lz1GerV6ofUe9UH9CgaThrRGnkaizW2KVxQeOZJknTSjNIk6dZorlV84zmIxpGM6exaFzafNo22llajxZRy1qLrZWlVa61R6tdq19bU9tVO1F7mnal9nHtLh1Mx0qHrZOjs1TngM5NnU8jjEYwR/BHLBpRN+LqiPe6Brr+unzdMt29ujd0P+nR9YL0svWW6zXo3dfH9e30Y/Sn6m/UP6vfZ6Bl4G3ANSgzOGBwxxA1tDOMNZxhuNWwzXDAyNgoxEhktM7ojFGfsY6xv3GW8SrjE8a9JjQTXxOBySqTkybP6dp0Jj2HvpbeQu83NTQNNZWYbjFtN/1sZm2WYFZsttfsvjnFnGGebr7KvNm838LEYqzFTItaizuWZEuGZablGstWy/dW1lZJVgusGqyeWetas62LrGut79lQbfxspthU21y3JdoybLNtN9hesUPt3Owy7SrtLtuj9u72AvsN9h0jCSM9RwpHVo/sdFBxYDoUOtQ6dDvqOEY4Fjs2OL4cZTEqZdTyUa2jvjm5OeU4bXO666zpHOZc7Nzk/NrFzoXrUulyfTR1dPDoOaMbR79ytXflu250veVGcxvrtsCt2e2ru4e72L3OvdfDwiPVo8qjk6HFiGYsZpz3JHgGeM7xPOb50cvdq8DrgNdf3g7e2d67vJ+NsR7DH7NtzCMfMx+OzxafLl+6b6rvZt8uP1M/jl+130N/c3+e/3b/p0xbZhZzN/NlgFOAOOBwwHuWF2sW61QgFhgSWBbYHqQZlBC0PuhBsFlwRnBtcH+IW8iMkFOhhNDw0OWhnWwjNpddw+4P8wibFdYSrhIeF74+/GGEXYQ4omksOjZs7Mqx9yItI4WRDVEgih21Mup+tHX0lOijMcSY6JjKmCexzrEzY1vjaHGT43bFvYsPiF8afzfBJkGS0JyoljghsSbxfVJg0oqkrnGjxs0adylZP1mQ3JhCSklM2Z4yMD5o/OrxPRPcJpROuDnReuK0iRcm6U/KmXR8stpkzuSDqYTUpNRdqV84UZxqzkAaO60qrZ/L4q7hvuD581bxevk+/BX8p+k+6SvSn2X4ZKzM6M30y6zI7BOwBOsFr7JCszZlvc+Oyt6RPZiTlLM3Vyk3NfeIUFOYLWzJM86bltchsheVirqmeE1ZPaVfHC7eno/kT8xvLNCCP/JtEhvJL5LuQt/CysIPUxOnHpymMU04rW263fRF058WBRf9NgOfwZ3RPNN05ryZ3bOYs7bMRmanzW6eYz6nZE7P3JC5O+dR5mXP+73YqXhF8dv5SfObSoxK5pY8+iXkl9pS1VJxaecC7wWbFuILBQvbF41etG7RtzJe2cVyp/KK8i+LuYsv/ur869pfB5ekL2lf6r504zLiMuGym8v9lu9cobGiaMWjlWNX1q+irypb9Xb15NUXKlwrNq2hrJGs6VobsbZxncW6Zeu+rM9cf6MyoHJvlWHVoqr3G3gbrm7031i3yWhT+aZPmwWbb20J2VJfbVVdsZW4tXDrk22J21p/Y/xWs11/e/n2rzuEO7p2xu5sqfGoqdlluGtpLVorqe3dPWH3lT2BexrrHOq27NXZW74P7JPse74/df/NA+EHmg8yDtYdsjxUdZh2uKweqZ9e39+Q2dDVmNzYcSTsSHOTd9Pho45HdxwzPVZ5XPv40hOUEyUnBk8WnRw4JTrVdzrj9KPmyc13z4w7c70lpqX9bPjZ8+eCz51pZbaePO9z/tgFrwtHLjIuNlxyv1Tf5tZ2+He33w+3u7fXX/a43HjF80pTx5iOE1f9rp6+Fnjt3HX29Us3Im903Ey4eatzQmfXLd6tZ7dzbr+6U3jn89259wj3yu6r3694YPig+g/bP/Z2uXcd7w7sbnsY9/DuI+6jF4/zH3/pKXlCfVLx1ORpzTOXZ8d6g3uvPB//vOeF6MXnvtI/Nf6semnz8tBf/n+19Y/r73klfjX4evEbvTc73rq+bR6IHnjwLvfd5/dlH/Q+7PzI+Nj6KenT089Tv5C+rP1q+7XpW/i3e4O5g4Mijpgj+xXAYEXT0wF4vQMAajIANHg+o4yXn/9kBZGfWWUI/CcsPyPKijsAdfD/PaYP/t10ArBvGzx+QX21CQBEUwGI9wTo6NHDdeisJjtXSgsRngM2s7+m5aaBf1PkZ84f4v65BVJVV/Bz+y+Manx37QeLzgAAAGxlWElmTU0AKgAAAAgABAEaAAUAAAABAAAAPgEbAAUAAAABAAAARgEoAAMAAAABAAIAAIdpAAQAAAABAAAATgAAAAAAAACQAAAAAQAAAJAAAAABAAKgAgAEAAAAAQAAAGagAwAEAAAAAQAAACYAAAAAs56sqQAAAAlwSFlzAAAWJQAAFiUBSVIk8AAAAi5JREFUaAXtmEFygzAMRUmnyxyAHexy/4PkANnBjgOwb/OZ+TMeNwbJwbbaSjOpySCZLz1bLrl8Pa1zM1eBD3OKXNBWAQdjdCE4GAdjtAJGZfmOcTBGK2BUlu8YB2O0Ahmy1nVVR2ljfMcoSzxNU3e/37tlWcSR8EUMYqXmYKSVevqhsPM8bxGPx0MEB1DgC0OsFE5TMBCtWXlbdo3+oBURCiUcwQmhMAZzSNpaMzAUfZQcE2o9Xq/X7na7/ZCR0s/84gDMgbmOrAmYWHQquSPxte/3fS+CE+dHnYCCOST2KXE60yclGnBgUuFnatLMRX3Uy9jwe3jN+xooiLnU/Nk/BYXiMWoTCGNrXktyoZ6cnKq1MmkiWG3wtW6pthbrzoGCOaqASUGBaHxi+ytwcqGgHsXPmD0o7NcQEvdlfg994PdfrOiOkUJJtQXrOyeVHxfPO/qLgcFLFFc9hWJMbe89OJIXsvAZNa6PoFBDLpxiYPASNQwD9W1jCgqdXsHBHJIXMs5RY0xBQX74xJYDp+gZM47jphE/QxxBYTI8U5AMoHAO3m897kGhdmiMuwW/hz57uVR5j0Er0q76nJi9RM+4J4WCZ2l8X2kr1srCh2mhIDYnJnzm2de1z8wqYM4uUov5sFBqnpkORkEZ5x3haM5M/kOgOTOrnDGK3H+Fa875p41xMEaXgrcyB2O0AkZl+Y5xMEYrYFSW7xgHY7QCRmX5jnEwRitgVJbvGKNgvgEkmD81Ypqs5gAAAABJRU5ErkJggg==;" vertex="1" parent="1">
          <mxGeometry x="350" y="62" width="75.16" height="28" as="geometry" />
        </mxCell>
        <mxCell id="K7eEEdeZ7u49Gsxe_DxU-3" value="属性" style="text;html=1;strokeColor=none;fillColor=none;align=center;verticalAlign=middle;whiteSpace=wrap;rounded=0;" vertex="1" parent="1">
          <mxGeometry x="275" y="60" width="60" height="30" as="geometry" />
        </mxCell>
        <mxCell id="K7eEEdeZ7u49Gsxe_DxU-4" value="" style="rounded=0;whiteSpace=wrap;html=1;" vertex="1" parent="1">
          <mxGeometry x="180" y="90" width="250" height="450" as="geometry" />
        </mxCell>
        <mxCell id="K7eEEdeZ7u49Gsxe_DxU-10" value="根据具体属性显示内容" style="text;html=1;strokeColor=none;fillColor=none;align=center;verticalAlign=middle;whiteSpace=wrap;rounded=0;" vertex="1" parent="1">
          <mxGeometry x="225" y="150" width="160" height="10" as="geometry" />
        </mxCell>
      </root>
    </mxGraphModel>
  </diagram>
  <diagram id="3JSU_59HkA6zq33KrObb" name="环境标签">
    <mxGraphModel dx="1814" dy="861" grid="1" gridSize="10" guides="1" tooltips="1" connect="1" arrows="1" fold="1" page="1" pageScale="1" pageWidth="827" pageHeight="1169" math="0" shadow="0">
      <root>
        <mxCell id="0" />
        <mxCell id="1" parent="0" />
        <mxCell id="wHj182EqFx1qGDSw1LJ0-1" value="" style="rounded=1;whiteSpace=wrap;html=1;arcSize=3;" vertex="1" parent="1">
          <mxGeometry x="180" y="60" width="250" height="480" as="geometry" />
        </mxCell>
        <mxCell id="wHj182EqFx1qGDSw1LJ0-2" value="" style="rounded=0;whiteSpace=wrap;html=1;" vertex="1" parent="1">
          <mxGeometry x="180" y="90" width="250" height="130" as="geometry" />
        </mxCell>
        <mxCell id="wHj182EqFx1qGDSw1LJ0-3" value="" style="rounded=0;whiteSpace=wrap;html=1;" vertex="1" parent="1">
          <mxGeometry x="180" y="220" width="250" height="320" as="geometry" />
        </mxCell>
        <mxCell id="wHj182EqFx1qGDSw1LJ0-4" value="已选标签" style="text;html=1;strokeColor=none;fillColor=none;align=center;verticalAlign=middle;whiteSpace=wrap;rounded=0;" vertex="1" parent="1">
          <mxGeometry x="190" y="110" width="60" height="30" as="geometry" />
        </mxCell>
        <mxCell id="wHj182EqFx1qGDSw1LJ0-5" value="晴天｜X" style="rounded=1;whiteSpace=wrap;html=1;" vertex="1" parent="1">
          <mxGeometry x="250" y="110" width="80" height="30" as="geometry" />
        </mxCell>
        <mxCell id="wHj182EqFx1qGDSw1LJ0-6" value="待选标签" style="text;html=1;strokeColor=none;fillColor=none;align=center;verticalAlign=middle;whiteSpace=wrap;rounded=0;" vertex="1" parent="1">
          <mxGeometry x="190" y="230" width="60" height="30" as="geometry" />
        </mxCell>
        <mxCell id="wHj182EqFx1qGDSw1LJ0-7" value="" style="shape=table;html=1;whiteSpace=wrap;startSize=0;container=1;collapsible=0;childLayout=tableLayout;rounded=1;" vertex="1" parent="1">
          <mxGeometry x="200" y="260" width="200" height="60" as="geometry" />
        </mxCell>
        <mxCell id="wHj182EqFx1qGDSw1LJ0-8" value="" style="shape=tableRow;horizontal=0;startSize=0;swimlaneHead=0;swimlaneBody=0;top=0;left=0;bottom=0;right=0;collapsible=0;dropTarget=0;fillColor=none;points=[[0,0.5],[1,0.5]];portConstraint=eastwest;rounded=1;" vertex="1" parent="wHj182EqFx1qGDSw1LJ0-7">
          <mxGeometry width="200" height="20" as="geometry" />
        </mxCell>
        <mxCell id="wHj182EqFx1qGDSw1LJ0-9" value="" style="shape=partialRectangle;html=1;whiteSpace=wrap;connectable=0;fillColor=none;top=0;left=0;bottom=0;right=0;overflow=hidden;rounded=1;" vertex="1" parent="wHj182EqFx1qGDSw1LJ0-8">
          <mxGeometry width="67" height="20" as="geometry">
            <mxRectangle width="67" height="20" as="alternateBounds" />
          </mxGeometry>
        </mxCell>
        <mxCell id="wHj182EqFx1qGDSw1LJ0-10" value="" style="shape=partialRectangle;html=1;whiteSpace=wrap;connectable=0;fillColor=none;top=0;left=0;bottom=0;right=0;overflow=hidden;rounded=1;" vertex="1" parent="wHj182EqFx1qGDSw1LJ0-8">
          <mxGeometry x="67" width="66" height="20" as="geometry">
            <mxRectangle width="66" height="20" as="alternateBounds" />
          </mxGeometry>
        </mxCell>
        <mxCell id="wHj182EqFx1qGDSw1LJ0-11" value="" style="shape=partialRectangle;html=1;whiteSpace=wrap;connectable=0;fillColor=none;top=0;left=0;bottom=0;right=0;overflow=hidden;rounded=1;" vertex="1" parent="wHj182EqFx1qGDSw1LJ0-8">
          <mxGeometry x="133" width="67" height="20" as="geometry">
            <mxRectangle width="67" height="20" as="alternateBounds" />
          </mxGeometry>
        </mxCell>
        <mxCell id="wHj182EqFx1qGDSw1LJ0-12" value="" style="shape=tableRow;horizontal=0;startSize=0;swimlaneHead=0;swimlaneBody=0;top=0;left=0;bottom=0;right=0;collapsible=0;dropTarget=0;fillColor=none;points=[[0,0.5],[1,0.5]];portConstraint=eastwest;rounded=1;" vertex="1" parent="wHj182EqFx1qGDSw1LJ0-7">
          <mxGeometry y="20" width="200" height="20" as="geometry" />
        </mxCell>
        <mxCell id="wHj182EqFx1qGDSw1LJ0-13" value="" style="shape=partialRectangle;html=1;whiteSpace=wrap;connectable=0;fillColor=none;top=0;left=0;bottom=0;right=0;overflow=hidden;rounded=1;" vertex="1" parent="wHj182EqFx1qGDSw1LJ0-12">
          <mxGeometry width="67" height="20" as="geometry">
            <mxRectangle width="67" height="20" as="alternateBounds" />
          </mxGeometry>
        </mxCell>
        <mxCell id="wHj182EqFx1qGDSw1LJ0-14" value="" style="shape=partialRectangle;html=1;whiteSpace=wrap;connectable=0;fillColor=none;top=0;left=0;bottom=0;right=0;overflow=hidden;rounded=1;" vertex="1" parent="wHj182EqFx1qGDSw1LJ0-12">
          <mxGeometry x="67" width="66" height="20" as="geometry">
            <mxRectangle width="66" height="20" as="alternateBounds" />
          </mxGeometry>
        </mxCell>
        <mxCell id="wHj182EqFx1qGDSw1LJ0-15" value="" style="shape=partialRectangle;html=1;whiteSpace=wrap;connectable=0;fillColor=none;top=0;left=0;bottom=0;right=0;overflow=hidden;rounded=1;" vertex="1" parent="wHj182EqFx1qGDSw1LJ0-12">
          <mxGeometry x="133" width="67" height="20" as="geometry">
            <mxRectangle width="67" height="20" as="alternateBounds" />
          </mxGeometry>
        </mxCell>
        <mxCell id="wHj182EqFx1qGDSw1LJ0-16" value="" style="shape=tableRow;horizontal=0;startSize=0;swimlaneHead=0;swimlaneBody=0;top=0;left=0;bottom=0;right=0;collapsible=0;dropTarget=0;fillColor=none;points=[[0,0.5],[1,0.5]];portConstraint=eastwest;rounded=1;" vertex="1" parent="wHj182EqFx1qGDSw1LJ0-7">
          <mxGeometry y="40" width="200" height="20" as="geometry" />
        </mxCell>
        <mxCell id="wHj182EqFx1qGDSw1LJ0-17" value="" style="shape=partialRectangle;html=1;whiteSpace=wrap;connectable=0;fillColor=none;top=0;left=0;bottom=0;right=0;overflow=hidden;rounded=1;" vertex="1" parent="wHj182EqFx1qGDSw1LJ0-16">
          <mxGeometry width="67" height="20" as="geometry">
            <mxRectangle width="67" height="20" as="alternateBounds" />
          </mxGeometry>
        </mxCell>
        <mxCell id="wHj182EqFx1qGDSw1LJ0-18" value="" style="shape=partialRectangle;html=1;whiteSpace=wrap;connectable=0;fillColor=none;top=0;left=0;bottom=0;right=0;overflow=hidden;rounded=1;" vertex="1" parent="wHj182EqFx1qGDSw1LJ0-16">
          <mxGeometry x="67" width="66" height="20" as="geometry">
            <mxRectangle width="66" height="20" as="alternateBounds" />
          </mxGeometry>
        </mxCell>
        <mxCell id="wHj182EqFx1qGDSw1LJ0-19" value="" style="shape=partialRectangle;html=1;whiteSpace=wrap;connectable=0;fillColor=none;top=0;left=0;bottom=0;right=0;overflow=hidden;pointerEvents=1;rounded=1;" vertex="1" parent="wHj182EqFx1qGDSw1LJ0-16">
          <mxGeometry x="133" width="67" height="20" as="geometry">
            <mxRectangle width="67" height="20" as="alternateBounds" />
          </mxGeometry>
        </mxCell>
        <mxCell id="wHj182EqFx1qGDSw1LJ0-20" value="" style="shape=image;verticalLabelPosition=bottom;labelBackgroundColor=default;verticalAlign=top;aspect=fixed;imageAspect=0;image=data:image/png,iVBORw0KGgoAAAANSUhEUgAAAGYAAAAmCAYAAAA2h+4OAAAMQGlDQ1BJQ0MgUHJvZmlsZQAASImVVwdYU8kWnluSkEBoAaQTehMEpASQEkILIL0INkISIJQQA0HFjiwquHaxgA1dFVHsgNgRxcKi2LAvqKgo62LBrrxJAV33le/N982d//5z5j9nzswtA4DaKY5IlIOqA5ArLBDHhgTQxyWn0ElPgDKgAB1gAJw43HwRMzo6AsAy1P69vLsJEGl7zUGq9c/+/1o0ePx8LgBINMRpvHxuLsSHAMCruCJxAQBEKW8+tUAkxbACLTEMEOKFUpwhx1VSnCbH+2Q28bEsiFsAUFLhcMQZAKhegTy9kJsBNVT7IXYS8gRCANToEPvm5ubxIE6F2AbaiCCW6jPSftDJ+Jtm2rAmh5MxjOVzkRWlQEG+KIcz/f9Mx/8uuTmSIR9WsKpkikNjpXOGebuVnRcuxSoQ9wnTIqMg1oT4g4Ans4cYpWRKQhPk9qghN58FcwbXGaBOPE5gOMSGEAcLcyIjFHxauiCYDTHcIeg0QQE7HmJdiBfy84PiFDabxXmxCl9ofbqYxVTw5zlimV+prweS7ASmQv91Jp+t0MdUizLjkyCmQGxRKEiMhFgVYsf87Lhwhc2YokxW5JCNWBIrjd8C4li+MCRAro8VpouDYxX2Zbn5Q/PFNmcK2JEKfKAgMz5Unh+shcuRxQ/ngl3hC5kJQzr8/HERQ3Ph8QOD5HPHnvGFCXEKnQ+igoBY+VicIsqJVtjjZvycEClvBrFrfmGcYiyeWAA3pFwfTxcVRMfL48SLsjhh0fJ48GUgArBAIKADCaxpIA9kAUF7X0MfvJP3BAMOEIMMwAcOCmZoRJKsRwivcaAI/AkRH+QPjwuQ9fJBIeS/DrPyqwNIl/UWykZkgycQ54JwkAPvJbJRwmFvieAxZAT/8M6BlQvjzYFV2v/v+SH2O8OETISCkQx5pKsNWRKDiIHEUGIw0RbXx31xbzwCXv1hdcEZuOfQPL7bE54QOggPCTcIXYTbkwXF4p+iHAu6oH6wIhdpP+YCt4KabngA7gPVoTKug+sDB9wV+mHiftCzG2RZirilWaH/pP23GfywGgo7shMZJY8g+5Ntfh6paqfqNqwizfWP+ZHHmjacb9Zwz8/+WT9knwfb8J8tsYXYQawVO41dwI5hDYCOncQasTbsuBQP767Hst015C1WFk821BH8w9/Qykozme9U69Tr9EXeV8CfJn1HA1aeaLpYkJFZQGfCLwKfzhZyHUfSXZxcXACQfl/kr683MbLvBqLT9p2b/wcAPicHBwePfufCTgKw3wM+/ke+czYM+OlQBuD8Ea5EXCjncOmFAN8SavBJ0wPGwBzYwPm4AHfgDfxBEAgDUSAeJINJMPpMuM/FYCqYCeaBUlAOloHVYD3YBLaCnWAPOAAawDFwGpwDl8AVcAPchbunB7wA/eAd+IwgCAmhIjREDzFBLBF7xAVhIL5IEBKBxCLJSCqSgQgRCTITmY+UIyuQ9cgWpAbZjxxBTiMXkA7kNtKN9CKvkU8ohqqgWqgRaoWOQhkoEw1H49GJaAY6BS1CS9Al6Fq0Gt2N1qOn0UvoDbQLfYEOYABTxnQwU8wBY2AsLApLwdIxMTYbK8MqsGqsDmuC63wN68L6sI84EafhdNwB7uBQPAHn4lPw2fhifD2+E6/HW/BreDfej38jUAmGBHuCF4FNGEfIIEwllBIqCNsJhwln4bPUQ3hHJBJ1iNZED/gsJhOziDOIi4kbiHuJp4gdxEfEARKJpEeyJ/mQokgcUgGplLSOtJt0knSV1EP6oKSsZKLkohSslKIkVCpWqlDapXRC6arSU6XPZHWyJdmLHEXmkaeTl5K3kZvIl8k95M8UDYo1xYcST8mizKOspdRRzlLuUd4oKyubKXsqxygLlOcqr1Xep3xeuVv5o4qmip0KS2WCikRlicoOlVMqt1XeUKlUK6o/NYVaQF1CraGeoT6gflClqTqqslV5qnNUK1XrVa+qvlQjq1mqMdUmqRWpVagdVLus1qdOVrdSZ6lz1GerV6ofUe9UH9CgaThrRGnkaizW2KVxQeOZJknTSjNIk6dZorlV84zmIxpGM6exaFzafNo22llajxZRy1qLrZWlVa61R6tdq19bU9tVO1F7mnal9nHtLh1Mx0qHrZOjs1TngM5NnU8jjEYwR/BHLBpRN+LqiPe6Brr+unzdMt29ujd0P+nR9YL0svWW6zXo3dfH9e30Y/Sn6m/UP6vfZ6Bl4G3ANSgzOGBwxxA1tDOMNZxhuNWwzXDAyNgoxEhktM7ojFGfsY6xv3GW8SrjE8a9JjQTXxOBySqTkybP6dp0Jj2HvpbeQu83NTQNNZWYbjFtN/1sZm2WYFZsttfsvjnFnGGebr7KvNm838LEYqzFTItaizuWZEuGZablGstWy/dW1lZJVgusGqyeWetas62LrGut79lQbfxspthU21y3JdoybLNtN9hesUPt3Owy7SrtLtuj9u72AvsN9h0jCSM9RwpHVo/sdFBxYDoUOtQ6dDvqOEY4Fjs2OL4cZTEqZdTyUa2jvjm5OeU4bXO666zpHOZc7Nzk/NrFzoXrUulyfTR1dPDoOaMbR79ytXflu250veVGcxvrtsCt2e2ru4e72L3OvdfDwiPVo8qjk6HFiGYsZpz3JHgGeM7xPOb50cvdq8DrgNdf3g7e2d67vJ+NsR7DH7NtzCMfMx+OzxafLl+6b6rvZt8uP1M/jl+130N/c3+e/3b/p0xbZhZzN/NlgFOAOOBwwHuWF2sW61QgFhgSWBbYHqQZlBC0PuhBsFlwRnBtcH+IW8iMkFOhhNDw0OWhnWwjNpddw+4P8wibFdYSrhIeF74+/GGEXYQ4omksOjZs7Mqx9yItI4WRDVEgih21Mup+tHX0lOijMcSY6JjKmCexzrEzY1vjaHGT43bFvYsPiF8afzfBJkGS0JyoljghsSbxfVJg0oqkrnGjxs0adylZP1mQ3JhCSklM2Z4yMD5o/OrxPRPcJpROuDnReuK0iRcm6U/KmXR8stpkzuSDqYTUpNRdqV84UZxqzkAaO60qrZ/L4q7hvuD581bxevk+/BX8p+k+6SvSn2X4ZKzM6M30y6zI7BOwBOsFr7JCszZlvc+Oyt6RPZiTlLM3Vyk3NfeIUFOYLWzJM86bltchsheVirqmeE1ZPaVfHC7eno/kT8xvLNCCP/JtEhvJL5LuQt/CysIPUxOnHpymMU04rW263fRF058WBRf9NgOfwZ3RPNN05ryZ3bOYs7bMRmanzW6eYz6nZE7P3JC5O+dR5mXP+73YqXhF8dv5SfObSoxK5pY8+iXkl9pS1VJxaecC7wWbFuILBQvbF41etG7RtzJe2cVyp/KK8i+LuYsv/ur869pfB5ekL2lf6r504zLiMuGym8v9lu9cobGiaMWjlWNX1q+irypb9Xb15NUXKlwrNq2hrJGs6VobsbZxncW6Zeu+rM9cf6MyoHJvlWHVoqr3G3gbrm7031i3yWhT+aZPmwWbb20J2VJfbVVdsZW4tXDrk22J21p/Y/xWs11/e/n2rzuEO7p2xu5sqfGoqdlluGtpLVorqe3dPWH3lT2BexrrHOq27NXZW74P7JPse74/df/NA+EHmg8yDtYdsjxUdZh2uKweqZ9e39+Q2dDVmNzYcSTsSHOTd9Pho45HdxwzPVZ5XPv40hOUEyUnBk8WnRw4JTrVdzrj9KPmyc13z4w7c70lpqX9bPjZ8+eCz51pZbaePO9z/tgFrwtHLjIuNlxyv1Tf5tZ2+He33w+3u7fXX/a43HjF80pTx5iOE1f9rp6+Fnjt3HX29Us3Im903Ey4eatzQmfXLd6tZ7dzbr+6U3jn89259wj3yu6r3694YPig+g/bP/Z2uXcd7w7sbnsY9/DuI+6jF4/zH3/pKXlCfVLx1ORpzTOXZ8d6g3uvPB//vOeF6MXnvtI/Nf6semnz8tBf/n+19Y/r73klfjX4evEbvTc73rq+bR6IHnjwLvfd5/dlH/Q+7PzI+Nj6KenT089Tv5C+rP1q+7XpW/i3e4O5g4Mijpgj+xXAYEXT0wF4vQMAajIANHg+o4yXn/9kBZGfWWUI/CcsPyPKijsAdfD/PaYP/t10ArBvGzx+QX21CQBEUwGI9wTo6NHDdeisJjtXSgsRngM2s7+m5aaBf1PkZ84f4v65BVJVV/Bz+y+Manx37QeLzgAAAGxlWElmTU0AKgAAAAgABAEaAAUAAAABAAAAPgEbAAUAAAABAAAARgEoAAMAAAABAAIAAIdpAAQAAAABAAAATgAAAAAAAACQAAAAAQAAAJAAAAABAAKgAgAEAAAAAQAAAGagAwAEAAAAAQAAACYAAAAAs56sqQAAAAlwSFlzAAAWJQAAFiUBSVIk8AAAAi5JREFUaAXtmEFygzAMRUmnyxyAHexy/4PkANnBjgOwb/OZ+TMeNwbJwbbaSjOpySCZLz1bLrl8Pa1zM1eBD3OKXNBWAQdjdCE4GAdjtAJGZfmOcTBGK2BUlu8YB2O0Ahmy1nVVR2ljfMcoSzxNU3e/37tlWcSR8EUMYqXmYKSVevqhsPM8bxGPx0MEB1DgC0OsFE5TMBCtWXlbdo3+oBURCiUcwQmhMAZzSNpaMzAUfZQcE2o9Xq/X7na7/ZCR0s/84gDMgbmOrAmYWHQquSPxte/3fS+CE+dHnYCCOST2KXE60yclGnBgUuFnatLMRX3Uy9jwe3jN+xooiLnU/Nk/BYXiMWoTCGNrXktyoZ6cnKq1MmkiWG3wtW6pthbrzoGCOaqASUGBaHxi+ytwcqGgHsXPmD0o7NcQEvdlfg994PdfrOiOkUJJtQXrOyeVHxfPO/qLgcFLFFc9hWJMbe89OJIXsvAZNa6PoFBDLpxiYPASNQwD9W1jCgqdXsHBHJIXMs5RY0xBQX74xJYDp+gZM47jphE/QxxBYTI8U5AMoHAO3m897kGhdmiMuwW/hz57uVR5j0Er0q76nJi9RM+4J4WCZ2l8X2kr1srCh2mhIDYnJnzm2de1z8wqYM4uUov5sFBqnpkORkEZ5x3haM5M/kOgOTOrnDGK3H+Fa875p41xMEaXgrcyB2O0AkZl+Y5xMEYrYFSW7xgHY7QCRmX5jnEwRitgVJbvGKNgvgEkmD81Ypqs5gAAAABJRU5ErkJggg==;" vertex="1" parent="1">
          <mxGeometry x="350" y="62" width="75.16" height="28" as="geometry" />
        </mxCell>
        <mxCell id="wHj182EqFx1qGDSw1LJ0-21" value="环境标签" style="text;html=1;strokeColor=none;fillColor=none;align=center;verticalAlign=middle;whiteSpace=wrap;rounded=0;" vertex="1" parent="1">
          <mxGeometry x="275" y="60" width="60" height="30" as="geometry" />
        </mxCell>
      </root>
    </mxGraphModel>
  </diagram>
</mxfile>
